<svg id="图层_1" data-name="图层 1" xmlns="http://www.w3.org/2000/svg" viewBox="0 0 432.077 99.63921"><defs><style>.cls-1{fill:#f5a9b8;}.cls-2{fill:#5bcefa;}.cls-3{fill:#fff;}.cls-4,.cls-6{fill:none;stroke:#231815;stroke-miterlimit:10;}.cls-4{stroke-width:5px;}.cls-5{fill:#231815;}.cls-6{stroke-width:3px;}</style></defs><rect class="cls-1" x="1.92607" y="22.83333" width="135.55556" height="19.44444"/><rect class="cls-2" x="1.92607" y="76.16667" width="135.55556" height="19.44444"/><rect class="cls-2" x="1.92607" y="3.83333" width="135.55556" height="19.88889"/><rect class="cls-1" x="1.92607" y="59.16667" width="135.55556" height="19.88889"/><rect class="cls-3" x="1.92607" y="42.27778" width="135.55556" height="19.88889"/><rect class="cls-4" x="2.5" y="2.5" width="135.53718" height="94.63921" rx="7"/><circle class="cls-5" cx="45.99081" cy="46" r="7.38889"/><circle class="cls-5" cx="94.54637" cy="46" r="7.38889"/><path class="cls-6" d="M70.26859,71.349A10.70828,10.70828,0,0,0,80.9769,60.6407H59.56028A10.70828,10.70828,0,0,0,70.26859,71.349Z"/><rect class="cls-5" x="11.06495" y="0.33333" width="8.69985" height="17.83333" rx="1"/><rect class="cls-5" x="121.73162" y="0.33333" width="8.69985" height="17.83333" rx="1"/><rect class="cls-5" x="22.60192" y="9.25" width="95.33333" height="2.86111"/><path class="cls-5" d="M24.56631,84.657c2.46849,0,14.17889-10.95747,7.50647-15.67526s-15.614,4.87-15.614,4.87C15.21861,76.29061,22.09783,84.657,24.56631,84.657Z"/><path class="cls-5" d="M117.34622,84.657c-2.46849,0-14.17889-10.95747-7.50647-15.67526s15.614,4.87,15.614,4.87C126.69392,76.29061,119.81471,84.657,117.34622,84.657Z"/><path d="M179.46616,92.69227,178.348,87.05263h7.88916a2.24752,2.24752,0,0,0,1.10546-.19043c.05616-.0337.22657-.13379.27784-.56836l.00586-.05078.01611-.04834a3.77942,3.77942,0,0,0,.12305-.49414q.06225-.334.14648-.66993l.09082-.37841H175.67319l1.16016-6.11963h-2.41651v1.56H172.057v3.25879l3.2124-.59521.147,3.13281.18457,3.415-.45458.06348c-1.14405.15967-3.35792.53564-6.58057,1.11718-3.18848.57422-5.83643,1.07129-7.87061,1.478l-.55273.11035-.521-6.63769.47364-.05908q.46655-.05861,1.042-.16016v-13.084h4.83984v12.31l.43994-.07324V71.69227h-5.27978V56.49257h13.35986V66.94276a15.96491,15.96491,0,0,0,3.97412-3.13037h-3.854v-5.7998h6.84863c.2666-.89844.49561-1.79932.68213-2.68311l.09229-.4375,5.97216.57764-.58691,2.543h8.75146v5.7998h-4.54687a10.16426,10.16426,0,0,0,1.96924,2.002,16.44443,16.44443,0,0,0,3.43554,1.959l.46094.19824-2.15723,4.96094H196.577v5.6001H182.95493l-.1294.56h11.897l-.34961,2.84083-.63916,5.31835a8.6022,8.6022,0,0,1-.98877,3.21875,4.07164,4.07164,0,0,1-2.15674,1.73145,10.9657,10.9657,0,0,1-3.63135.49023Zm-5.16943-18.56V72.93251h.77246l-.72608-1.24024H172.057v2.44Zm19.87207-1.19971a25.1211,25.1211,0,0,1-3.23194-2.12549v1.3252H179.3768v-1.1836c-.814.62256-1.76464,1.28613-2.84228,1.98389Zm-7.229-6.32031a17.02474,17.02474,0,0,1-1.49951-2.67334,19.62847,19.62847,0,0,1-1.69336,2.67334Zm-18.083-1.15967V62.73231h-2v2.72022Z"/><path class="cls-3" d="M182.63706,55.43251l4.96.48-.6001,2.6001h8.87988v4.7998h-5a11.01458,11.01458,0,0,0,2.62012,2.8999,16.82516,16.82516,0,0,0,3.54,2.02l-2,4.6001a24.20913,24.20913,0,0,1-4.6001-3.08008v1.87989H179.8768V69.91249a41.14923,41.14923,0,0,1-4.23974,3l-1.64014-2.80029v1.08007H171.557v3.44h2.35986v4.96044H171.557v4.35987l3.23975-.6001.12011,2.56006.16016,2.96q-1.72046.24024-6.6001,1.12012-4.88085.8789-7.87988,1.48l-.43994-5.6001q.6394-.07983,1.48-.24023v-13h3.83984V85.03261l1.43994-.24024V71.19227h-5.27978V56.99257h12.35986v10.7998a15.95878,15.95878,0,0,0,5.52-4.48H175.117v-4.7998h6.71972q.48048-1.56006.8003-3.08008m-16.28028,10.52h3V62.23231h-3v3.72022m16.36036,1.15967h5.1997a16.64507,16.64507,0,0,1-2.1997-3.79981h-.52a19.31994,19.31994,0,0,1-2.48,3.79981M196.077,73.43251v4.6001h-13.52l-.35986,1.56h11.96l-.28028,2.27979-.63964,5.31982a8.18508,8.18508,0,0,1-.92041,3.02,3.56355,3.56355,0,0,1-1.89991,1.52,10.4432,10.4432,0,0,1-3.46.46H179.8768l-.91992-4.63964h7.28028a2.75149,2.75149,0,0,0,1.35986-.26026,1.17061,1.17061,0,0,0,.52-.93994,4.2884,4.2884,0,0,0,.14013-.56006q.05934-.31933.13965-.64013l.24024-1H176.27671l1.16015-6.11963h-2.64013v-4.6001H196.077M181.8432,54.351l-.1846.875c-.159.75369-.34951,1.52008-.5682,2.28653h-6.09348v-1.52H160.63706V84.79335c-.21585.03454-.41757.06354-.60388.08679l-.94785.11835.07483.95227.43994,5.60013.08823,1.12317,1.10476-.22092c2.03095-.4061,4.67579-.90283,7.861-1.47641,3.21664-.58035,5.424-.95511,6.56115-1.11389l.90992-.12705-.04966-.91736-.16015-2.96-.03311-.70623h11.48626c-.03436.15081-.06607.30429-.09454.45748a3.316,3.316,0,0,1-.10593.42737l-.0321.09662-.012.10114a.566.566,0,0,1-.05536.214l-.0004-.00016a2.2423,2.2423,0,0,1-.83105.104h-8.498l.23685,1.19448.91992,4.63965.1597.80551h7.90127a11.27638,11.27638,0,0,0,3.802-.52026,4.55624,4.55624,0,0,0,2.41388-1.94272,9.048,9.048,0,0,0,1.05435-3.39538l.64258-5.34208.27994-2.27716.08386-.68206H197.077v-6.6001h-.77576L197.954,68.631l.4-.92008-.92139-.397a15.90681,15.90681,0,0,1-3.33056-1.89771,9.23443,9.23443,0,0,1-1.20774-1.10385h3.98242v-6.7998H188.254l.31738-1.37522.25632-1.11047-1.13437-.10977-4.96-.48-.89017-.08612Zm-14.48642,8.88128h1v1.72022h-1V63.23231Zm7.64014,1.08008H177.281a15.99741,15.99741,0,0,1-2.28412,1.74191V64.31239Zm9.72141,1.79981q.36625-.5387.68991-1.087.28362.54817.61306,1.087Zm6.71853,6.32031v-.6297q.45186.32194.92728.6297Zm-13.25458,0q.3594-.24861.69452-.49036v.49036Zm-5.6253-.24024h1.49936l.14068.24024h-.40029v1.19971H172.557v-1.44Zm2.35986,6.84034h1.31262l-.59677,3.148-1.01809.18856-2.05762.38114V80.59266h2.35986v-1.56Z"/><path d="M204.77671,92.49306V71.45546c-.19,1.78271-.36621,3.15722-.52637,4.10058l-.08545.50245-4.59375-.86817.09521-.49267c.28956-1.50342.53614-3.27784.73291-5.27393q.3003-3.03662.65918-7.39209l.043-.519,3.6753.4541V55.13222h6.44043V60.683q.624.30834,2.31982,1.14062l1.09277.56348q.46364-2.14161.79248-4.34863l.07178-.4795,6.07373.71729-.07617.51025c-.19287,1.28467-.37109,2.37989-.53223,3.26612h1.41748v-6.8003H229.057v6.8003h7.35986v6.63964H229.057v4.44h6.91992v6.44043H229.057v5.55957h8.12012v6.48H212.537v-6.48h9.83984V79.57265h-7.87988V73.13222h.54834l-3.34814-1.01807.19287-.50147q.65331-1.69482,1.21045-3.45654l-.24121.63428-.50489-.28076q-.47315-.26221-1.1372-.61231V92.49306ZM222.3768,73.13222v-4.44h-3.00195c-.46191,1.61329-.939,3.10352-1.42041,4.44Z"/><path class="cls-3" d="M210.71714,55.63222v5.36035q.39917.20068,2.59961,1.27978l1.24023.64014-1.96,5.16016q-.72-.39992-1.87988-1V91.99306h-5.44043V55.63222h5.44043m17.83984.12011v6.8003h7.35986v5.63964H228.557v5.44h6.91992v5.44043H228.557v6.55957h8.12012v5.48H213.037v-5.48h9.83984V79.07265h-7.87988V73.63222h7.87988v-5.44h-3.87988q-.80053,2.84108-1.64014,5.12012l-5-1.52a64.34674,64.34674,0,0,0,3.56006-13.68017l5.08008.60009q-.35962,2.40015-.64014,3.84034h2.52v-6.8003H228.557m-27,6.32032,3.56006.43994q-.08057.56029-.12012,1.11963-.04028.561-.08008,1.08007-.04027.59987-.43994,4.74024-.3999,4.13964-.71973,6.02l-3.60009-.68018q.43946-2.28.73974-5.31982.3003-3.03955.66016-7.3999m10.16016-7.44043h-7.44043v6.76892l-2.59708-.321-1.03348-.12768-.08578,1.03778c-.24036,2.90854-.462,5.39285-.65869,7.384-.19523,1.98135-.43967,3.74054-.72654,5.22885l-.18994.98557.98624.18634,3.6001.68014.70517.13324V92.99306h7.44043v-20.35l.34878.10605,1.931.587v6.73649h7.87988v4.55957H212.037v7.48H237.6771v-7.48H229.557V80.07265h6.91992V72.63222H229.557v-3.44h7.35986V61.55263H229.557v-6.8003H221.8768v3.057l-.76257-.09009-5.08008-.6001-.96332-.1138-.14306.95945q-.27737,1.86026-.65183,3.67736l-.50055-.25836q-1.38862-.68162-2.05825-1.0116V54.63222Zm9.83856,6.92041c.10135-.58625.20862-1.24588.3211-1.97471v1.97471Zm-9.83856,9.10153V68.73073q.21153.11457.39431.21612l.17337.09632q-.27328.81252-.56768,1.611Zm8.0336-1.46189h2.12606v3.44h-3.21545c.36856-1.0647.73312-2.21582,1.08939-3.44Z"/><path d="M238.83823,89.19765l.40771-.40137a24.047,24.047,0,0,0,3.958-4.834,14.3735,14.3735,0,0,0,1.60156-4.58984h-4.58837V73.25233h5.09472q.02124-.84009.02442-2.15967H241.537v-15h18.68018v15h-8.76075q-.00366,1.314-.02392,2.15967h9.3623s-.145,4.04492-.23828,6.53858q-.14062,3.74487-.26025,6.14648c-.11377,2.19092-.75342,3.77881-1.90186,4.72168-1.14355.9375-2.90918,1.39356-5.39746,1.39356h-3.811l-.82813-4.209q-.19629.31788-.40674.62891a39.64266,39.64266,0,0,1-3.58593,4.418l-.31055.33886Zm12.39893-3.0254a7.70133,7.70133,0,0,0,2.05322-.19775,1.11085,1.11085,0,0,0,.71924-.56543,4.09558,4.09558,0,0,0,.28759-1.63281l.14307-4.40381h-3.356a24.22575,24.22575,0,0,1-1.03369,4.88086,17.47271,17.47271,0,0,1-.78125,1.91894Zm2.73974-21.15966v-3h-6.27978v3Zm8.88623,27.63965-1.27-6.67969h5.68408a2.41271,2.41271,0,0,0,1.47754-.28321c.0918-.07617.30176-.34521.30176-1.21679V55.29237H275.537V86.71229a5.68274,5.68274,0,0,1-1.6748,4.54053c-1.1045.9419-2.81348,1.39942-5.22559,1.39942Zm-1.48633-9.79981V59.13222H267.617V82.85243Z"/><path class="cls-3" d="M275.037,55.79237V86.71229a5.19261,5.19261,0,0,1-1.5,4.16016q-1.5,1.27954-4.90039,1.27979h-5.35938l-1.08007-5.67969h5.08007a2.92373,2.92373,0,0,0,1.79883-.3999,2.043,2.043,0,0,0,.48047-1.6001V55.79237H275.037m-15.31982.80029v14h-8.76026q0,2.12037-.04,3.15967h9.35987q-.08056,2.28-.21973,6.02-.14062,3.74048-.26025,6.14014-.15968,3.08056-1.71973,4.35986-1.56006,1.27954-5.08008,1.28028H249.597l-.96-4.88038h2.6001a8.10015,8.10015,0,0,0,2.1997-.21972,1.59752,1.59752,0,0,0,1.02-.82031,4.6385,4.6385,0,0,0,.33985-1.83985l.16015-4.91992h-4.31982a24.33336,24.33336,0,0,1-1.06006,5.22021,17.08348,17.08348,0,0,1-2.04,4.09961,38.99882,38.99882,0,0,1-3.54,4.36036l-4.3999-3.40039a24.42075,24.42075,0,0,0,4.04-4.94,15.26447,15.26447,0,0,0,1.75976-5.33984h-4.67968V73.75233h5.07959q.03954-1.0393.04-3.15967H242.037v-14h17.68018m-12.52,8.91993h7.27978v-4h-7.27978v4M267.117,59.63222V82.35243H261.8768V59.63222H267.117m8.91992-4.83985h-7.48047V84.47255a1.60987,1.60987,0,0,1-.13327.844l-.00006,0a2.571,2.571,0,0,1-1.146.156H260.989l.2257,1.18683,1.08008,5.67968.15464.81318h6.18713c2.53592,0,4.35113-.49686,5.54938-1.519a6.14893,6.14893,0,0,0,1.851-4.921V54.79237Zm-15.31982.80029H241.037v16h3.79721q-.00361.64536-.01218,1.15967h-5.10485v7.12012h4.478a13.39422,13.39422,0,0,1-1.42453,3.84045,23.56983,23.56983,0,0,1-3.87555,4.727l-.81539.8035.90579.7,4.3999,3.4004.727.56185.62128-.67691a42.27266,42.27266,0,0,0,3.36831-4.09546l.51383,2.61228.15875.807h4.22235c2.60867,0,4.47781-.493,5.71423-1.50708,1.262-1.03565,1.96314-2.74518,2.08423-5.0813.03852-.7695.07828-1.63565.11988-2.61182H268.117V58.63222H260.8768V72.75233h-8.93444q.00837-.5175.01193-1.15967h8.76285v-16Zm-12.52,6.91993h5.27978v2h-5.27978v-2Zm3.32861,17.35986h2.39807l-.12656,3.88739a3.64217,3.64217,0,0,1-.23458,1.42474.59981.59981,0,0,1-.4177.3115,7.00048,7.00048,0,0,1-1.9078.17617h-1.19373q.26367-.61994.48047-1.258a23.98425,23.98425,0,0,0,1.00183-4.54178Z"/><path d="M309.25766,92.81239V90.57265h-8.32031v2.23974h-6.47949V77.44423l-1.71192,2.34228-1.92871-1.83008v14.856h-6.35937V80.53309c-.834,1.49024-1.7207,2.93067-2.64649,4.29981l-.74316,1.09912-1.23145-9.70947.11231-.15918a31.77712,31.77712,0,0,0,4.24512-8.41113H280.537V61.41249h3.9209v-6h6.35937v6h3.56055v6.23975h-3.56055v2.35253l3.64063,3.16944V56.6122H315.577V92.81239Zm0-8.64014v-3h-8.32031v3Zm0-9.15966v-2.96h-8.32031v2.96Zm0-9.12012V63.01259h-8.32031v2.87988Z"/><path class="cls-3" d="M290.31723,55.91249v6h3.56055v5.23975h-3.56055v3.08007l4.64063,4.04V57.1122H315.077V92.31239h-5.31934V90.07265h-9.32031v2.23974h-5.47949V75.91249l-2.28027,3.12012-2.36036-2.24024v15.52h-5.35937V78.55263a60.35272,60.35272,0,0,1-3.56055,6l-1.04-8.2002a32.125,32.125,0,0,0,4.52051-9.20019H281.037V61.91249h3.9209v-6h5.35937m10.12012,10.48h9.32031V62.51259h-9.32031v3.87988m0,9.12012h9.32031v-3.96h-9.32031v3.96m0,9.15966h9.32031v-4h-9.32031v4m-9.12012-29.75976h-7.35937v6H280.037v7.23975h3.45752a31.27,31.27,0,0,1-3.95349,7.62252l-.22473.31757.04895.38592,1.04,8.2002.33392,2.63293,1.48657-2.19863q.892-1.31928,1.73212-2.72007V93.31239h7.35937V79.12019l.67194.63773.82483.78283.671-.91809.4729-.64706V93.31239h7.47949V91.07265h7.32031v2.23974H316.077V56.1122H293.95786v4.80029h-2.64063v-6Zm10.12012,8.6001h7.32031v1.87988h-7.32031V63.51259Zm-10.12012,4.63965h2.64063v3.92367L291.31723,69.777V68.15224Zm10.12012,4.40039h7.32031v1.96h-7.32031v-1.96Zm0,9.11962h7.32031v2h-7.32031v-2Z"/><path d="M319.71176,86.78261l.57129-.18555a37.177,37.177,0,0,0,9.42969-4.25537,13.42408,13.42408,0,0,0,3.93164-3.9292H320.73716v-6.52h14.12011V68.33241H322.33774v-6.3999h6.53906c-1.03808-1.47168-2.085-2.90772-3.11914-4.2793l-.35449-.47021,5.76367-3.023.25782.3164c2.0039,2.4585,3.7041,4.63135,5.05468,6.459l.34864.47119-1.01661.52588h3.626c.93359-1.169,1.89941-2.44971,2.874-3.811,1.02539-1.4331,1.85352-2.65527,2.46094-3.6333l.24121-.38818,6.33594,3.19141-.34863.47607c-1.02149,1.3999-2.09375,2.79736-3.19336,4.165h6.49023v6.3999H341.65708v3.56006h14.24023v6.52H342.84946c2.43262,3.67236,7.00781,6.28467,13.61719,7.772l.62011.13916-3.22265,6.53955-.39746-.1084a32.85433,32.85433,0,0,1-9.13867-3.92138,21.4674,21.4674,0,0,1-5.8877-5.48c-2.99121,4.18164-8.00977,7.4082-14.93262,9.5957l-.39355.125Z"/><path class="cls-3" d="M345.19712,54.75233l5.40039,2.72022q-1.83985,2.51954-3.83985,4.96h7.04v5.3999H341.15708v4.56006h14.24023v5.52H341.95786q3.55958,6.3208,14.39941,8.75976l-2.75976,5.6001a32.2114,32.2114,0,0,1-9-3.85986,20.665,20.665,0,0,1-6.16016-5.93994q-4.31982,6.59985-15.08008,10l-2.91992-5.3999a37.4665,37.4665,0,0,0,9.56055-4.32032,12.78374,12.78374,0,0,0,4.47949-4.83984H321.23716v-5.52h14.12011V67.83241H322.83774v-5.3999h7q-1.84131-2.64039-3.68066-5.08008l4.87988-2.56006q3,3.68043,5.04,6.43994l-2.31934,1.2002h5.91993q1.47948-1.83984,3.04-4.02,1.56006-2.1797,2.4795-3.66016m-.3667-1.30441-.48267.77658c-.60187.96848-1.42389,2.1817-2.4433,3.606-.917,1.28165-1.82641,2.49127-2.70794,3.602h-1.72828l-.587-.79443c-1.35492-1.83384-3.06043-4.01319-5.06915-6.47754l-.51624-.63327-.72345.37957-4.87988,2.56006-1.04291.54712.70892.9404c.84546,1.12137,1.69922,2.286,2.55,3.47809h-6.0708v7.3999h12.51953v2.56006H320.23716v7.52h12.46527a14.26616,14.26616,0,0,1-3.27552,3.01886,36.70579,36.70579,0,0,1-9.29858,4.19025l-1.14148.37091.57086,1.05578,2.91992,5.3999.39307.7269.788-.249c6.72583-2.12582,11.69043-5.22925,14.78309-9.23673a22.19252,22.19252,0,0,0,5.61639,5.06522,33.35662,33.35662,0,0,0,9.27747,3.98288l.79486.2157.364-.73874,2.75977-5.6001.56127-1.13894-1.23877-.27872C350.57828,84.347,346.3,82.06859,343.82651,78.91249h12.5708v-7.52H342.15708V68.83241H354.7977v-7.3999h-5.95251c.87787-1.11221,1.7348-2.24033,2.55993-3.37021l.69544-.95236-1.05316-.53049L345.647,53.85924l-.81653-.41132Z"/><path d="M360.65708,90.57265V57.37245h12.02051c3.97753,0,7.09375.75635,9.26269,2.248a7.57343,7.57343,0,0,1,3.35742,6.61181,7.25006,7.25006,0,0,1-4.82422,7.21387,8.99468,8.99468,0,0,1,4.33789,2.25293,7.18837,7.18837,0,0,1,2.00586,5.29346A8.17218,8.17218,0,0,1,383.161,88.1244c-2.36816,1.62451-5.77441,2.44825-10.124,2.44825Zm11.54-7.36036a11.18448,11.18448,0,0,0,4.93261-.86523,2.38835,2.38835,0,0,0,1.52735-2.19482,2.19163,2.19163,0,0,0-1.53321-1.96778,11.92062,11.92062,0,0,0-4.92675-.812h-3.54v5.83984Zm-.35938-13.15966a8.22245,8.22245,0,0,0,4.01074-.79395,2.21136,2.21136,0,0,0,1.249-2.02637,1.92215,1.92215,0,0,0-1.21387-1.77734,8.849,8.849,0,0,0-4.00586-.72266h-3.2207v5.32032Z"/><path class="cls-3" d="M372.67759,57.87245q5.83885,0,8.97949,2.16016a7.06908,7.06908,0,0,1,3.14062,6.1997q0,5.52027-5.7998,7.2002v.23974a9.39642,9.39642,0,0,1,5.46,2.38038,6.67928,6.67928,0,0,1,1.85937,4.93994,7.66615,7.66615,0,0,1-3.43945,6.71972q-3.44091,2.36059-9.84082,2.36036H361.15708V57.87245h11.52051m-4.52051,12.68018h3.68066a8.65086,8.65086,0,0,0,4.25977-.86036,2.69748,2.69748,0,0,0,1.5-2.46,2.42363,2.42363,0,0,0-1.48047-2.21972,9.273,9.273,0,0,0-4.23926-.78028h-3.7207v6.32032m0,13.15966h4.04a11.59221,11.59221,0,0,0,5.16015-.91992,2.86908,2.86908,0,0,0,1.79981-2.64013,2.66353,2.66353,0,0,0-1.81934-2.41993,12.3355,12.3355,0,0,0-5.14062-.85986h-4.04v6.83984m4.52051-26.83984H360.15708v34.2002H373.037c4.45264,0,7.95392-.85315,10.40656-2.53574a8.6468,8.6468,0,0,0,3.87371-7.54434,7.67035,7.67035,0,0,0-2.15216-5.64691,8.75729,8.75729,0,0,0-3.32885-2.01774,7.69223,7.69223,0,0,0,3.96148-7.09561,8.04709,8.04709,0,0,0-3.574-7.02365c-2.25409-1.5502-5.46582-2.33621-9.54614-2.33621Zm-3.52051,8.35986h2.7207a8.39194,8.39194,0,0,1,3.77289.66486c.83923.44247.94684.94595.94684,1.33514a1.70773,1.70773,0,0,1-.997,1.59223,7.76057,7.76057,0,0,1-3.76276.72809h-2.68066V65.23231Zm0,12.64014h3.04a11.46618,11.46618,0,0,1,4.71362.7641c1.10461.52252,1.24634,1.0845,1.24634,1.51569,0,.51608-.14264,1.18133-1.25482,1.74966a10.72466,10.72466,0,0,1-4.70514.81039h-3.04V77.87245Z"/><path d="M400.91684,91.13222a12.45279,12.45279,0,0,1-6.37207-1.58838,10.59771,10.59771,0,0,1-4.19629-4.57032,16.9,16.9,0,0,1,0-13.70312,10.64808,10.64808,0,0,1,4.19532-4.54981,13.57756,13.57756,0,0,1,12.74511,0,10.64417,10.64417,0,0,1,4.19629,4.54981,16.88962,16.88962,0,0,1,0,13.70312,10.59759,10.59759,0,0,1-4.19629,4.57032A12.45274,12.45274,0,0,1,400.91684,91.13222Zm0-18.59961a3.49,3.49,0,0,0-2.96191,1.4414,6.75351,6.75351,0,0,0-1.1377,4.13819,6.82934,6.82934,0,0,0,1.1377,4.1792,3.7643,3.7643,0,0,0,5.92383-.00049,6.82321,6.82321,0,0,0,1.13867-4.17871,6.7462,6.7462,0,0,0-1.13965-4.13868A3.48783,3.48783,0,0,0,400.91684,72.53261Z"/><path class="cls-3" d="M400.91684,65.63222a11.91585,11.91585,0,0,1,6.12012,1.52,10.10087,10.10087,0,0,1,4,4.34033,16.39411,16.39411,0,0,1,0,13.25976,10.06661,10.06661,0,0,1-4,4.35987,13.08084,13.08084,0,0,1-12.24023,0,10.06661,10.06661,0,0,1-4-4.35987,16.40451,16.40451,0,0,1,0-13.25976,10.10087,10.10087,0,0,1,4-4.34033,11.91579,11.91579,0,0,1,6.12011-1.52m0,18.60009a3.99058,3.99058,0,0,0,3.36035-1.63965,7.26969,7.26969,0,0,0,1.24024-4.48046,7.19877,7.19877,0,0,0-1.24024-4.43995,4.26324,4.26324,0,0,0-6.7207,0,7.19872,7.19872,0,0,0-1.23926,4.43995,7.26968,7.26968,0,0,0,1.23926,4.48046,3.98938,3.98938,0,0,0,3.36035,1.63965m0-19.60009a12.95222,12.95222,0,0,0-6.62457,1.65658,11.13258,11.13258,0,0,0-4.39124,4.75907,17.39419,17.39419,0,0,0-.00115,14.14675,11.09534,11.09534,0,0,0,4.39239,4.781,14.0739,14.0739,0,0,0,13.24933-.00009,11.0958,11.0958,0,0,0,4.39233-4.7811,17.384,17.384,0,0,0-.00134-14.14667,11.13193,11.13193,0,0,0-4.39063-4.75866,12.95275,12.95275,0,0,0-6.62512-1.65689Zm0,18.60009a2.97933,2.97933,0,0,1-2.56274-1.24282,6.35056,6.35056,0,0,1-1.03687-3.87729A6.2761,6.2761,0,0,1,398.3544,74.275a3.26366,3.26366,0,0,1,5.12543.00082,6.27483,6.27483,0,0,1,1.0376,3.8364,6.3496,6.3496,0,0,1-1.038,3.87756,2.97922,2.97922,0,0,1-2.56256,1.24255Z"/><path d="M426.117,91.17225a8.37607,8.37607,0,0,1-6.30078-2.293,8.95557,8.95557,0,0,1-2.19922-6.44678V73.09266h-3.68067V65.69227H417.617V59.01259h7.7998v6.67968H431.577v7.40039h-6.16016v8.29981a2.04429,2.04429,0,0,0,.583,1.57617,2.44276,2.44276,0,0,0,1.75684.564,9.22331,9.22331,0,0,0,2.69336-.418l.64648-.19776v7.44434l-.35254.10889A15.66222,15.66222,0,0,1,426.117,91.17225Z"/><path class="cls-3" d="M424.91684,59.51259v6.67968H431.077v6.40039h-6.16016v8.79981a2.53838,2.53838,0,0,0,.74024,1.93994,2.935,2.935,0,0,0,2.09961.7002,9.67658,9.67658,0,0,0,2.83984-.44v6.39991a15.09428,15.09428,0,0,1-4.47949.67968,7.8659,7.8659,0,0,1-5.94043-2.13964,8.44063,8.44063,0,0,1-2.05957-6.1001V72.59266h-3.68067V66.19227H418.117V59.51259h6.7998m1-1H417.117v6.67968h-3.68067v8.40039H417.117v8.83985a9.43127,9.43127,0,0,0,2.33941,6.79388,8.8513,8.8513,0,0,0,6.66059,2.44586,16.16365,16.16365,0,0,0,4.77466-.72424l.70483-.21774v-8.489l-1.29236.395a8.724,8.724,0,0,1-2.54748.39627,2.00723,2.00723,0,0,1-1.41217-.42646,1.578,1.578,0,0,1-.42768-1.21368V73.59266H432.077V65.19227h-6.16016V58.51259Z"/><polygon points="169.003 45.3 169.003 18.66 160.492 18.66 160.492 13.379 182.678 13.379 182.678 18.66 174.203 18.66 174.203 45.3 169.003 45.3"/><path class="cls-3" d="M182.17807,13.87929v4.28027h-8.47461V44.7997h-4.20019V18.15956H160.992V13.87929h21.186m1-1H159.992v6.28027h8.51123V45.7997h6.20019V19.15956h8.47461V12.87929Z"/><path d="M181.82651,45.2997l-.07666-23h5.12842v3.14941a9.0338,9.0338,0,0,1,2.51025-2.41162,8.58336,8.58336,0,0,1,4.69043-1.29785h.72071v5.52h-.83155a7.99735,7.99735,0,0,0-5.27832,1.562,4.92018,4.92018,0,0,0-1.81152,3.978v12.5Z"/><path class="cls-3" d="M194.29966,22.23964v4.52h-.33155a8.4346,8.4346,0,0,0-5.60058,1.67968,5.44,5.44,0,0,0-1.98926,4.36036v12h-4.05322l-.07373-22h4.12695v4.11963h.18408a8.9138,8.9138,0,0,1,3.09473-3.46,8.0561,8.0561,0,0,1,4.42187-1.21972h.22071m1-1H194.079a9.07633,9.07633,0,0,0-4.95883,1.3761,9.26661,9.26661,0,0,0-1.74185,1.43881V21.7997H181.248l.00336,1.00335.07373,22,.00335.99665h6.04987v-13a4.44687,4.44687,0,0,1,1.63452-3.59638,7.52509,7.52509,0,0,1,4.95532-1.44366h1.33155v-6.52Z"/><path d="M202.18442,45.85927a6.89218,6.89218,0,0,1-4.99072-1.8208,6.51256,6.51256,0,0,1-1.88379-4.87891,6.76474,6.76474,0,0,1,2.78662-5.82568c1.79785-1.29688,4.36377-1.95459,7.625-1.95459h2.0791v-.89991a3.96554,3.96554,0,0,0-.98633-2.875,3.44577,3.44577,0,0,0-2.64062-1.0249,6.17264,6.17264,0,0,0-4.35645,2.20752l-.35742.36914-3.18555-3.25488.29932-.34815a10.1507,10.1507,0,0,1,7.93213-3.81347,8.12359,8.12359,0,0,1,6.04932,2.30957,8.387,8.387,0,0,1,2.26172,6.11035V45.2997h-5.01612V43.26015a6.54416,6.54416,0,0,1-1.86572,1.59179A7.38567,7.38567,0,0,1,202.18442,45.85927Zm4.16358-9.67969a10.99677,10.99677,0,0,0-4.62208.72754,2.04781,2.04781,0,0,0-1.28906,1.97217,1.93237,1.93237,0,0,0,.69043,1.56005,3.01471,3.01471,0,0,0,2.01514.62012,5.46078,5.46078,0,0,0,2.17724-.47851,4.27849,4.27849,0,0,0,1.78321-1.45411,4.02971,4.02971,0,0,0,.69775-2.40722v-.54Z"/><path class="cls-3" d="M204.50571,22.23964a7.61156,7.61156,0,0,1,5.69238,2.15967,7.87282,7.87282,0,0,1,2.11866,5.76025V44.7997h-4.01612V41.87929h-.22119a5.82647,5.82647,0,0,1-2.395,2.54,6.86234,6.86234,0,0,1-3.5.93994,6.38181,6.38181,0,0,1-4.64258-1.67969,6.00558,6.00558,0,0,1-1.73193-4.52,6.26438,6.26438,0,0,1,2.5791-5.41992q2.57886-1.86036,7.33252-1.86035h2.5791V30.47938a4.47739,4.47739,0,0,0-1.124-3.21972,3.953,3.953,0,0,0-3.00293-1.18018,6.61694,6.61694,0,0,0-4.71582,2.35986l-2.50537-2.56005a9.631,9.631,0,0,1,7.55322-3.63965m-1.36328,19.31982a5.92421,5.92421,0,0,0,2.37646-.52,4.752,4.752,0,0,0,1.98975-1.62011,4.49779,4.49779,0,0,0,.792-2.69971v-1.04H206.348a11.39248,11.39248,0,0,0-4.84522.77978,2.55287,2.55287,0,0,0-1.56592,2.41993,2.4277,2.4277,0,0,0,.86573,1.94043,3.47861,3.47861,0,0,0,2.33984.73974m1.36328-20.31982a10.63063,10.63063,0,0,0-8.31128,3.98745l-.59854.69571.64191.65592,2.50537,2.56006.71859.73428.7146-.73819a5.70259,5.70259,0,0,1,3.99732-2.05539,2.9724,2.9724,0,0,1,2.279.87,3.49466,3.49466,0,0,1,.848,2.5299v.39991h-1.5791c-3.36865,0-6.0325.68948-7.91757,2.04934a7.23948,7.23948,0,0,0-2.994,6.23093,6.99361,6.99361,0,0,0,2.03567,5.23782,7.37259,7.37259,0,0,0,5.33884,1.96189,7.88137,7.88137,0,0,0,4.0014-1.07474,7.4034,7.4034,0,0,0,1.11481-.78775V45.7997h6.01612V30.15956a8.86986,8.86986,0,0,0-2.40458-6.4603,8.60557,8.60557,0,0,0-6.40646-2.45962Zm-1.36328,19.31982a2.50651,2.50651,0,0,1-1.68952-.49942,1.42542,1.42542,0,0,1-.51605-1.18075,1.55718,1.55718,0,0,1,1.01163-1.52475,10.56554,10.56554,0,0,1,4.39951-.675h.95263v.04a3.497,3.497,0,0,1-.60345,2.11529,3.73651,3.73651,0,0,1-1.57633,1.28717,4.96157,4.96157,0,0,1-1.97842.43738Z"/><path d="M229.7601,45.2997V31.51942a5.27248,5.27248,0,0,0-1.064-3.46045,3.24729,3.24729,0,0,0-2.63623-1.23925,4.03248,4.03248,0,0,0-3.19971,1.37109,5.50634,5.50634,0,0,0-1.23779,3.76855V45.2997H216.6063v-23h5.01611v2.19384a7.61382,7.61382,0,0,1,1.98828-1.70312,7.201,7.201,0,0,1,3.73877-1.05078,6.73982,6.73982,0,0,1,5.48926,2.40234,10.12747,10.12747,0,0,1,1.9375,6.57764V45.2997Z"/><path class="cls-3" d="M227.34946,22.23964a6.23688,6.23688,0,0,1,5.103,2.21972,9.60917,9.60917,0,0,1,1.82373,6.26026V44.7997H230.2601V31.51942a5.72773,5.72773,0,0,0-1.17919-3.77978,3.7522,3.7522,0,0,0-3.021-1.41992,4.54688,4.54688,0,0,0-3.57422,1.53955,5.96239,5.96239,0,0,0-1.36328,4.10009V44.7997H217.1063v-22h4.01611v3.04h.18457a7,7,0,0,1,2.56055-2.62012,6.67618,6.67618,0,0,1,3.48193-.98m0-1a7.693,7.693,0,0,0-3.99509,1.12167,8.31218,8.31218,0,0,0-1.232.897V21.7997H216.1063v24h6.01611V31.95936a4.9619,4.9619,0,0,1,1.1123-3.43756,3.5595,3.5595,0,0,1,2.8252-1.20208,2.74,2.74,0,0,1,2.2518,1.05893,4.73018,4.73018,0,0,1,.94839,3.14077V45.7997h6.01612V30.71962a10.6049,10.6049,0,0,0-2.05106-6.895,7.21828,7.21828,0,0,0-5.8757-2.585Z"/><path d="M246.06626,45.85927a9.66175,9.66175,0,0,1-5.415-1.50244,9.25,9.25,0,0,1-3.40576-4.03418l-.186-.41846,4.25684-2.36084.228.48291a5.43405,5.43405,0,0,0,1.87159,2.23828,4.72213,4.72213,0,0,0,2.687.79492,3.87983,3.87983,0,0,0,2.33594-.60107,1.75306,1.75306,0,0,0,.73828-1.499,1.79524,1.79524,0,0,0-.77881-1.50146,8.85559,8.85559,0,0,0-3.04248-1.21289,13.8302,13.8302,0,0,1-5.64112-2.60742,5.7162,5.7162,0,0,1-1.99658-4.51807,6.90288,6.90288,0,0,1,2.249-5.39307,8.58144,8.58144,0,0,1,5.915-1.98681,8.97454,8.97454,0,0,1,4.98877,1.40088,9.97519,9.97519,0,0,1,3.41407,3.87011l.21045.40772-4.07422,2.56348-.2583-.45557a6.64668,6.64668,0,0,0-1.94922-2.23584,3.99329,3.99329,0,0,0-2.33155-.751,3.57551,3.57551,0,0,0-2.26855.65186,1.93668,1.93668,0,0,0-.76855,1.6084,1.80109,1.80109,0,0,0,.87841,1.49365,9.67017,9.67017,0,0,0,3.23389,1.26025c4.87451,1.17578,7.34619,3.51953,7.34619,6.96582a6.80075,6.80075,0,0,1-2.28906,5.356A8.72507,8.72507,0,0,1,246.06626,45.85927Z"/><path class="cls-3" d="M245.88217,22.23964a8.44717,8.44717,0,0,1,4.71583,1.31982,9.4429,9.4429,0,0,1,3.24267,3.68018l-3.24267,2.04a7.10009,7.10009,0,0,0-2.1001-2.40039,4.51775,4.51775,0,0,0-2.61573-.83985,4.03547,4.03547,0,0,0-2.5791.76026,2.42787,2.42787,0,0,0-.958,2,2.28579,2.28579,0,0,0,1.08691,1.8999,10.07066,10.07066,0,0,0,3.4082,1.33984q6.96313,1.68018,6.96338,6.48a6.29421,6.29421,0,0,1-2.11865,4.98,8.2073,8.2073,0,0,1-5.61865,1.85987,9.13366,9.13366,0,0,1-5.14014-1.41993,8.71993,8.71993,0,0,1-3.22363-3.81982l3.38965-1.87988a5.89813,5.89813,0,0,0,2.04492,2.43994,5.18828,5.18828,0,0,0,2.96582.87988,4.3325,4.3325,0,0,0,2.63476-.70019,2.24253,2.24253,0,0,0,.93946-1.89991,2.28472,2.28472,0,0,0-.97657-1.8999,9.2623,9.2623,0,0,0-3.22363-1.2998,13.28915,13.28915,0,0,1-5.43506-2.5,5.21386,5.21386,0,0,1-1.82373-4.14014,6.39449,6.39449,0,0,1,2.082-5.02,8.06488,8.06488,0,0,1,5.582-1.85986m0-1a9.06312,9.06312,0,0,0-6.24853,2.11438,7.38129,7.38129,0,0,0-2.41553,5.7655,6.19665,6.19665,0,0,0,2.169,4.896,14.10978,14.10978,0,0,0,5.843,2.71319,8.15384,8.15384,0,0,1,2.86658,1.12781,1.29206,1.29206,0,0,1,.58048,1.10284,1.25147,1.25147,0,0,1-.53614,1.09745,3.41333,3.41333,0,0,1-2.03808.50265,4.17168,4.17168,0,0,1-2.40726-.70935,4.87382,4.87382,0,0,1-1.69925-2.03754l-.45584-.96508-.93338.51764L237.2175,39.245l-.801.44421.37231.83679a9.74232,9.74232,0,0,0,3.58716,4.24842,10.15446,10.15446,0,0,0,5.69025,1.58484,9.2088,9.2088,0,0,0,6.27841-2.1084,7.28046,7.28046,0,0,0,2.45889-5.73145c0-3.70736-2.60034-6.2146-7.72882-7.45208a9.214,9.214,0,0,1-3.05945-1.18,1.27288,1.27288,0,0,1-.67022-1.08764,1.42838,1.42838,0,0,1,.57934-1.21646,3.09936,3.09936,0,0,1,1.95776-.5438,3.50884,3.50884,0,0,1,2.04761.66278,6.14829,6.14829,0,0,1,1.79819,2.07047l.51623.911.8863-.55756,3.24267-2.04.77674-.48864-.42029-.8158a10.47056,10.47056,0,0,0-3.58576-4.06006,9.46676,9.46676,0,0,0-5.26169-1.48193Z"/><path d="M270.43637,45.2997V13.37929H280.037c3.36426,0,6.00879.72851,7.85938,2.165A7.49314,7.49314,0,0,1,290.743,21.7997a7.47344,7.47344,0,0,1-1.4082,4.60009,7.10635,7.10635,0,0,1-2.72754,2.17237,7.42531,7.42531,0,0,1,3.71582,2.21679,7.50316,7.50316,0,0,1,1.78321,5.13038,8.34206,8.34206,0,0,1-3.15918,6.97509c-2.05762,1.59619-5.01856,2.40528-8.79981,2.40528Zm9.19532-5.2002a9.80486,9.80486,0,0,0,5.41406-1.23535,3.75868,3.75868,0,0,0,1.75-3.34473,3.31059,3.31059,0,0,0-1.73145-3.01269,10.54488,10.54488,0,0,0-5.3955-1.12744h-4.06934V40.0995Zm-.07422-13.91992a7.447,7.447,0,0,0,4.38672-1.105,3.3696,3.3696,0,0,0,1.45117-2.915,2.88692,2.88692,0,0,0-1.42774-2.59863,8.33622,8.33622,0,0,0-4.44628-.98145h-3.92188v7.6001Z"/><path class="cls-3" d="M280.037,13.87929q4.8999,0,7.55273,2.06005A6.986,6.986,0,0,1,290.243,21.7997a6.95754,6.95754,0,0,1-1.30761,4.2998,6.98511,6.98511,0,0,1-3.70313,2.46v.24024a7.44965,7.44965,0,0,1,4.71582,2.31982,6.98981,6.98981,0,0,1,1.65821,4.79981,7.83452,7.83452,0,0,1-2.96582,6.58007q-2.96631,2.30054-8.49317,2.3003h-9.21094V13.87929H280.037m-4.9375,12.80029h4.458a7.87639,7.87639,0,0,0,4.67969-1.2002,3.87026,3.87026,0,0,0,1.6582-3.31982,3.38261,3.38261,0,0,0-1.6582-3.02,8.76924,8.76924,0,0,0-4.71582-1.06006h-4.42188v8.6001m0,13.91992h4.53223a10.22681,10.22681,0,0,0,5.69238-1.31982,4.26241,4.26241,0,0,0,1.97168-3.76026,3.80835,3.80835,0,0,0-1.97168-3.43994,10.9598,10.9598,0,0,0-5.65527-1.20019h-4.56934V40.5995m4.9375-27.72021H269.93637V45.7997h10.21094c3.89472,0,6.95844-.84452,9.106-2.51011a8.81994,8.81994,0,0,0,3.353-7.37026,7.99,7.99,0,0,0-1.90809-5.46113,7.56356,7.56356,0,0,0-2.8576-1.99722,7.38856,7.38856,0,0,0,1.8938-1.76019,7.96328,7.96328,0,0,0,1.5086-4.90109,7.96856,7.96856,0,0,0-3.03979-6.65c-1.94061-1.50659-4.688-2.27038-8.16626-2.27038Zm-3.9375,6.20019h3.42188a7.873,7.873,0,0,1,4.17755.90283,2.3914,2.3914,0,0,1,1.19647,2.17725A2.86361,2.86361,0,0,1,283.651,24.6692a6.97152,6.97152,0,0,1-4.0935,1.01038h-3.458v-6.6001Zm0,12.79981h3.56934a10.08,10.08,0,0,1,5.13549,1.05447,2.81111,2.81111,0,0,1,1.49146,2.58566,3.252,3.252,0,0,1-1.52844,2.9296,9.34257,9.34257,0,0,1-5.13562,1.15048h-3.53223V31.87929Z"/><path d="M304.53794,45.85927a9.09011,9.09011,0,0,1-8.748-5.72022,15.81882,15.81882,0,0,1-1.18359-6.33935,15.69049,15.69049,0,0,1,1.18359-6.32129,9.59342,9.59342,0,0,1,3.46094-4.23535,9.98483,9.98483,0,0,1,10.53808,0,9.71425,9.71425,0,0,1,3.47754,4.23242,15.48,15.48,0,0,1,1.2041,6.32422,15.60656,15.60656,0,0,1-1.20312,6.34228,9.56728,9.56728,0,0,1-3.48047,4.23535A9.40545,9.40545,0,0,1,304.53794,45.85927Zm0-19a4.01724,4.01724,0,0,0-3.46192,1.792,8.72252,8.72252,0,0,0-1.34375,5.14844,8.81047,8.81047,0,0,0,1.34473,5.16992,4.25024,4.25024,0,0,0,6.96,0,8.81356,8.81356,0,0,0,1.34375-5.16992,8.72824,8.72824,0,0,0-1.34277-5.14893A4.0518,4.0518,0,0,0,304.53794,26.85927Z"/><path class="cls-3" d="M304.53794,22.23964a8.78228,8.78228,0,0,1,4.97461,1.41992,9.184,9.184,0,0,1,3.29785,4.02,14.9178,14.9178,0,0,1,1.16015,6.12012,15.05389,15.05389,0,0,1-1.16015,6.13964,9.03252,9.03252,0,0,1-3.29785,4.02,8.94355,8.94355,0,0,1-13.26465-4.02,15.25646,15.25646,0,0,1-1.1416-6.13964,15.11833,15.11833,0,0,1,1.1416-6.12012,9.05664,9.05664,0,0,1,3.27929-4.02,8.84511,8.84511,0,0,1,5.01075-1.41992m0,19.04a4.547,4.547,0,0,0,3.90625-2.02,9.25037,9.25037,0,0,0,1.43652-5.46,9.15967,9.15967,0,0,0-1.43652-5.44043,4.77755,4.77755,0,0,0-7.77442,0,9.15958,9.15958,0,0,0-1.4375,5.44043,9.25029,9.25029,0,0,0,1.4375,5.46,4.51121,4.51121,0,0,0,3.86817,2.02m0-20.04a9.86634,9.86634,0,0,0-5.564,1.58691,10.08119,10.08119,0,0,0-3.6416,4.45072,16.17607,16.17607,0,0,0-1.22607,6.52243,16.3129,16.3129,0,0,0,1.225,6.53949,10.19711,10.19711,0,0,0,14.72907,4.45672,10.05437,10.05437,0,0,0,3.66418-4.45132,16.10734,16.10734,0,0,0,1.246-6.54489,15.97339,15.97339,0,0,0-1.24688-6.5275,10.2088,10.2088,0,0,0-3.65741-4.44534,9.80337,9.80337,0,0,0-5.52832-1.58722Zm0,19.04a3.53492,3.53492,0,0,1-3.05329-1.5997,8.33581,8.33581,0,0,1-1.25238-4.88028,8.24779,8.24779,0,0,1,1.24976-4.85712,3.77757,3.77757,0,0,1,6.15014.00027,8.24945,8.24945,0,0,1,1.24854,4.85685,8.33678,8.33678,0,0,1-1.25128,4.88015,3.56931,3.56931,0,0,1-3.09149,1.59983Z"/><path d="M325.576,46.0995a6.22865,6.22865,0,0,1-4.94531-1.9917,8.221,8.221,0,0,1-1.707-5.54834V27.41933h-3.16895V22.2997h3.16895V15.57948h5.01562V22.2997h5.6377v5.11963h-5.6377V38.07948a3.12275,3.12275,0,0,0,.66309,2.14551,2.354,2.354,0,0,0,1.8584.71435,5.57673,5.57673,0,0,0,1.99414-.40625l.67969-.26269v5.15674l-.32618.12109A9.27148,9.27148,0,0,1,325.576,46.0995Z"/><path class="cls-3" d="M323.4393,16.07948V22.7997h5.6377v4.11963h-5.6377V38.07948a3.57666,3.57666,0,0,0,.792,2.48,2.845,2.845,0,0,0,2.22949.87988,6.03739,6.03739,0,0,0,2.17383-.43994v4.08008a8.73244,8.73244,0,0,1-3.0586.52,5.7308,5.7308,0,0,1-4.56836-1.81982,7.71316,7.71316,0,0,1-1.584-5.22022V26.91933h-3.16895V22.7997h3.16895V16.07948h4.01562m1-1h-6.01562V21.7997h-3.16895v6.11963h3.16895V38.55946a8.69993,8.69993,0,0,0,1.82983,5.877A6.707,6.707,0,0,0,325.576,46.5995a9.767,9.767,0,0,0,3.40625-.5824l.65235-.24191V39.54161l-1.36005.52484a5.07511,5.07511,0,0,1-1.81378.37289,1.8829,1.8829,0,0,1-1.48627-.54892,2.64908,2.64908,0,0,1-.53522-1.81094V27.91933h5.6377V21.7997h-5.6377V15.07948Z"/></svg>