<svg id="图层_1" data-name="图层 1" xmlns="http://www.w3.org/2000/svg" viewBox="0 0 406.81528 100.49403"><defs><style>.cls-1{fill:#f5a9b8;}.cls-2{fill:#5bcefa;}.cls-3{fill:#fff;}.cls-4,.cls-6{fill:none;stroke:#231815;stroke-miterlimit:10;}.cls-4{stroke-width:5px;}.cls-5{fill:#231815;}.cls-6{stroke-width:3px;}.cls-7{font-size:37.42261px;font-family:HarmonyOS_Sans_SC_Medium, HarmonyOS Sans SC;}.cls-8{letter-spacing:-0.00496em;}.cls-9{font-size:38.60447px;font-family:HarmonyOS_Sans_SC, HarmonyOS Sans SC;}.cls-10{letter-spacing:-0.08999em;}.cls-11{letter-spacing:-0.04301em;}.cls-12{letter-spacing:-0.00401em;}</style></defs><rect class="cls-1" x="1.92607" y="22.83333" width="135.55556" height="19.44444"/><rect class="cls-2" x="1.92607" y="76.16667" width="135.55556" height="19.44444"/><rect class="cls-2" x="1.92607" y="3.83333" width="135.55556" height="19.88889"/><rect class="cls-1" x="1.92607" y="59.16667" width="135.55556" height="19.88889"/><rect class="cls-3" x="1.92607" y="42.27778" width="135.55556" height="19.88889"/><rect class="cls-4" x="2.5" y="2.5" width="135.53718" height="94.63921" rx="7"/><circle class="cls-5" cx="45.99081" cy="46" r="7.38889"/><circle class="cls-5" cx="94.54637" cy="46" r="7.38889"/><path class="cls-6" d="M70.26859,71.349A10.70828,10.70828,0,0,0,80.9769,60.6407H59.56028A10.70828,10.70828,0,0,0,70.26859,71.349Z"/><rect class="cls-5" x="11.06495" y="0.33333" width="8.69985" height="17.83333" rx="1"/><rect class="cls-5" x="121.73162" y="0.33333" width="8.69985" height="17.83333" rx="1"/><rect class="cls-5" x="22.60192" y="9.25" width="95.33333" height="2.86111"/><path class="cls-5" d="M24.56631,84.657c2.46849,0,14.17889-10.95747,7.50647-15.67526s-15.614,4.87-15.614,4.87C15.21861,76.29061,22.09783,84.657,24.56631,84.657Z"/><path class="cls-5" d="M117.34622,84.657c-2.46849,0-14.17889-10.95747-7.50647-15.67526s15.614,4.87,15.614,4.87C126.69392,76.29061,119.81471,84.657,117.34622,84.657Z"/><text class="cls-7" transform="translate(158.51694 90.35243)">跨性别相关B<tspan class="cls-8" x="211.81104" y="0">o</tspan><tspan x="233.854" y="0">t</tspan></text><text class="cls-9" transform="translate(161.74057 44.5995) scale(0.92113 1)"><tspan class="cls-10">T</tspan><tspan class="cls-11" x="18.45294" y="0">r</tspan><tspan x="31.23075" y="0">ans B</tspan><tspan class="cls-12" x="127.81675" y="0">o</tspan><tspan x="150.47702" y="0">t</tspan></text></svg>