<svg id="图层_1" data-name="图层 1" xmlns="http://www.w3.org/2000/svg" viewBox="0 0 425.63559 99.63921"><defs><style>.cls-1{fill:#f5a9b8;}.cls-2{fill:#5bcefa;}.cls-3{fill:#fff;}.cls-4,.cls-6{fill:none;stroke:#231815;stroke-miterlimit:10;}.cls-4{stroke-width:5px;}.cls-5{fill:#231815;}.cls-6{stroke-width:3px;}</style></defs><rect class="cls-1" x="1.92607" y="22.83333" width="135.55556" height="19.44444"/><rect class="cls-2" x="1.92607" y="76.16667" width="135.55556" height="19.44444"/><rect class="cls-2" x="1.92607" y="3.83333" width="135.55556" height="19.88889"/><rect class="cls-1" x="1.92607" y="59.16667" width="135.55556" height="19.88889"/><rect class="cls-3" x="1.92607" y="42.27778" width="135.55556" height="19.88889"/><rect class="cls-4" x="2.5" y="2.5" width="135.53718" height="94.63921" rx="7"/><circle class="cls-5" cx="45.99081" cy="46" r="7.38889"/><circle class="cls-5" cx="94.54637" cy="46" r="7.38889"/><path class="cls-6" d="M70.26859,71.349A10.70828,10.70828,0,0,0,80.9769,60.6407H59.56028A10.70828,10.70828,0,0,0,70.26859,71.349Z"/><rect class="cls-5" x="11.06495" y="0.33333" width="8.69985" height="17.83333" rx="1"/><rect class="cls-5" x="121.73162" y="0.33333" width="8.69985" height="17.83333" rx="1"/><rect class="cls-5" x="22.60192" y="9.25" width="95.33333" height="2.86111"/><path class="cls-5" d="M24.56631,84.657c2.46849,0,14.17889-10.95747,7.50647-15.67526s-15.614,4.87-15.614,4.87C15.21861,76.29061,22.09783,84.657,24.56631,84.657Z"/><path class="cls-5" d="M117.34622,84.657c-2.46849,0-14.17889-10.95747-7.50647-15.67526s15.614,4.87,15.614,4.87C126.69392,76.29061,119.81471,84.657,117.34622,84.657Z"/><path d="M180.27134,92.09266l-.89014-4.24023h6.81592a3.00276,3.00276,0,0,0,1.66015-.334,1.58141,1.58141,0,0,0,.56543-1.12207c.08155-.38477.17383-.96436.27881-1.75049.04883-.26221.09619-.5249.14258-.79346h-12.4917l1.16016-6.08008H174.537V73.49257h.145l-1.6084-2.68018h-1.81641v3.91992h3.11963v4.43994h-3.11963v5.31446c1.709-.27344,2.79395-.46436,3.3086-.58155l.56982-.12988.16016,2.30225.14941,2.33935-.45166.06983c-1.90088.29443-4.23925.68408-6.95068,1.1582q-4.11841.72-7.03809,1.23975l-.53222.09472-.45948-4.647,1.80372-.28662V72.09266h3.92041V85.40712l1.27978-.20215V70.81239h-5V57.09266h12.2002V68.516a20.90031,20.90031,0,0,0,3.08837-2.47949,17.597,17.597,0,0,0,2.26319-2.74414h-4.91162V58.93251h7.02441c.39844-1.16406.75733-2.419,1.06934-3.73535l.105-.44434,4.34326.62061-.11328.52441c-.23828,1.10254-.49658,2.12012-.76953,3.03467h9.8208v4.35986h-5.49072a14.27642,14.27642,0,0,0,6.24609,5.729l.45947.21923-1.9751,3.95069-.45117-.23535a19.84055,19.84055,0,0,1-4.02881-2.80225v1.37891H179.01694V70.44032a35.06163,35.06163,0,0,1-3.82568,2.89014l-.24707.16211h21.273v4.27978H182.04233l-.38867,1.83985h12.18457l-.34473,2.95849c-.24023,1.63233-.42773,3.15821-.55908,4.54883a8.13479,8.13479,0,0,1-.9292,2.93115,3.74652,3.74652,0,0,1-1.97558,1.59082,9.74666,9.74666,0,0,1-3.3125.45117Zm8.11474-24.64013a20.70486,20.70486,0,0,1-2.47558-4.16016h-1.28125a22.0713,22.0713,0,0,1-2.70411,4.16016ZM170.057,66.21229v-4.52h-3.76025v4.52Z"/><path class="cls-3" d="M183.23716,55.31239l3.35986.48a37.60274,37.60274,0,0,1-.96,3.64014h10v3.35986h-5.84033a14.77456,14.77456,0,0,0,6.88037,6.68018l-1.52,3.04a19.45851,19.45851,0,0,1-4.76026-3.52v2.04H179.51694V69.31239a33.52053,33.52053,0,0,1-4.6001,3.6001l-1.56006-2.6001h-2.59961v4.91992h3.11963v3.43994h-3.11963v6.4004q3.03882-.48048,3.91993-.68018l.11963,1.71973.12011,1.88037q-2.84033.44017-6.96,1.15967-4.11987.72-7.04,1.24023l-.35986-3.64014,1.75977-.27978V72.59266h2.92041V85.99257l2.27978-.36035V70.31239h-5V57.59266h11.2002V69.43251a22.381,22.381,0,0,0,3.93994-3.04,18.14687,18.14687,0,0,0,2.81982-3.6001h-5.31982V59.43251H182.037a39.88882,39.88882,0,0,0,1.2002-4.12012m-17.44043,11.3999H170.557v-5.52h-4.76025v5.52m15.04,1.24024h8.6001a19.96333,19.96333,0,0,1-3.1997-5.16016h-1.92041a21.68706,21.68706,0,0,1-3.48,5.16016m14.88038,6.04v3.27978H181.63706l-.6001,2.83985h12.23975l-.27979,2.40039q-.35962,2.44042-.56006,4.56006a7.69369,7.69369,0,0,1-.85986,2.71972,3.24381,3.24381,0,0,1-1.72022,1.37988,9.37057,9.37057,0,0,1-3.13964.42041h-6.04l-.68018-3.24023h6.2002a3.524,3.524,0,0,0,1.93994-.41992,2.03351,2.03351,0,0,0,.77978-1.46q.12012-.55957.28028-1.76026.11938-.63941.23974-1.35986h-12.48l1.16016-6.08008H175.037V73.99257h20.68018M182.4744,54.19328l-.21036.8888c-.27789,1.1741-.59387,2.29785-.94183,3.35043h-6.60507V56.59266h-13.2002V71.31239h5V84.77788l-.27978.04422V71.59266h-4.92041V85.619l-.91678.14575-.93088.148.09274.938.35987,3.64014.10632,1.07568,1.06418-.18957q2.9181-.5198,7.03683-1.23966c2.70807-.47333,5.04334-.86246,6.94095-1.15655l.90308-.14-.05826-.912-.12009-1.88038-.12-1.72537-.08106-1.16519-1.13879.25958c-.43744.09973-1.34265.26148-2.69767.48212V79.67225h3.11963v-1.3999h2.03138l-.93357,4.89264-.22659,1.18744h12.49875l-.03266.17633-.00476.02545-.00341.02564c-.10334.77316-.19309,1.33935-.26682,1.68283l-.00616.02862-.00446.02893a1.20924,1.20924,0,0,1-.3529.78476,2.57238,2.57238,0,0,1-1.37848.24744H178.7652l.25305,1.20544.68018,3.24024.16678.79455h6.85193a10.21655,10.21655,0,0,0,3.48574-.4822,4.23376,4.23376,0,0,0,2.23005-1.801,8.56538,8.56538,0,0,0,.99148-3.0794l.005-.03165.003-.03186c.13037-1.3823.31668-2.89905.5538-4.50818L194.27,80.228l.13-1.11578H182.27036l.17746-.83985h14.26932V72.99257h-.682l.01639-.03278,1.52-3.04.45529-.91058-.91861-.43894a13.74337,13.74337,0,0,1-5.5553-4.77786h5.08414V58.43251h-9.65674c.20874-.75318.40753-1.56564.59412-2.42886l.22683-1.04941-1.06283-.15183-3.35987-.48-.90417-.12915Zm-15.67767,7.999H169.557v3.52h-2.76025v-3.52Zm18.13974,1.6001h.653a21.33948,21.33948,0,0,0,1.81165,3.16016h-4.44873a22.38549,22.38549,0,0,0,1.984-3.16016Zm-10.21933,0h3.88443a16.96345,16.96345,0,0,1-1.64707,1.88849,19.32732,19.32732,0,0,1-2.23736,1.87842V63.79237Zm3.7998,8.24024h12.87988V71.234a20.254,20.254,0,0,0,2.559,1.75855H176.57453q1.01266-.71686,1.94241-1.47595v.516Zm-6.75977-.72022h1.03342l1.24637,2.07727v.84265h-2.27979V71.31239Z"/><path d="M205.3768,92.53212V64.45155c-.16064,1.64942-.356,3.48926-.583,5.49707-.33448,2.95166-.62452,5.1875-.86329,6.645l-.083.5044-3.99707-.7461.0957-.49414a124.962,124.962,0,0,0,1.55225-13.85986l.03466-.50293,3.84375.29932V55.01259h4.76026v6.16552c1.396,1.02,2.82422,2.10254,4.24853,3.2212l.09668.07568q.79908-3.24464,1.34033-6.75879l.07374-.47949,4.55517.563-.08105.51074c-.272,1.72607-.53028,3.23681-.76856,4.502h3.25488V55.17225h4.88038v7.64014H236.097v4.87988h-8.35986v6.32032h7.71972v4.71972h-7.71972v7.52h9.11962v4.72022H212.13706V86.25233h10.71972v-7.52h-8.63964V74.01259h8.63964V67.69227h-4.397c-.55957,2.04737-1.16211,3.95411-1.79346,5.67237l-.16845.45849-4.47266-1.52441.18457-.48438a61.58637,61.58637,0,0,0,1.97461-6.17382l-1.67627,3.07959-.4668-.3794q-.91187-.74121-1.90429-1.522V92.53212Z"/><path class="cls-3" d="M209.63706,55.51259v5.91992q2.19947,1.60034,4.43994,3.35986l-1.72022,3.16016q-1.28027-1.04-2.71972-2.16016V92.03212H205.8768V55.51259h3.76026m17.6001.15966v7.64014H235.597v3.87988h-8.35986v7.32032h7.71972v3.71972h-7.71972v8.52h9.11962v3.72022H212.63706V86.75233h10.71972v-8.52h-8.63964V74.51259h8.63964V67.19227H218.077q-.88036,3.28053-1.87988,6l-3.52-1.1997a69.509,69.509,0,0,0,3.63965-14.2002l3.56.43994q-.47973,3.04029-.87988,5.08008h4.35986V55.67225h3.88038m-25.24024,6.36036,3.08008.23974q-.28051,3.20068-.78027,7.62012-.50025,4.42017-.85987,6.62012l-3-.56006a124.74288,124.74288,0,0,0,1.56006-13.91992m8.64014-7.52H204.8768v6.74115l-2.80227-.21811-1.00492-.07825-.07025,1.00552A124.454,124.454,0,0,1,199.455,75.76277l-.19095.9881.98929.18469,3,.56,1.005.18762.16531-1.00894c.13733-.83826.28741-1.89783.45309-3.20087V93.03212h5.76026V67.85246q.56043.44673,1.0892.87625l.81751.6641q-.3826,1.14537-.80112,2.24365l-.369.96832.98087.33432,1.68264.57349h-.32v5.71972h8.63964v6.52H211.63706v5.72022h25.71972V85.75233h-9.11962v-6.52h7.71972V73.51259h-7.71972V68.19227H236.597V62.31239h-8.35986V54.67225h-5.88038v7.64014h-2.15362c.208-1.14056.42956-2.45486.66144-3.92422l.16116-1.02149-1.02631-.12683-3.56-.43994-.96348-.119-.14755.9595q-.47388,3.08094-1.15033,5.96161c-1.18744-.92462-2.37469-1.82232-3.541-2.6774v-6.412Zm8.20343,13.67968h3.51629v5.32032h-5.212c.59488-1.62174,1.16421-3.40824,1.69571-5.32032Z"/><path d="M239.64243,89.77724l.41113-.38819a27.02351,27.02351,0,0,0,3.35694-3.708,13.16793,13.16793,0,0,0,1.793-3.46826,18.771,18.771,0,0,0,.80079-3.88037h-5.30713v-4.52h5.585c.0542-1.13086.08545-2.23047.09277-3.27978h-4.07812V56.77235H259.537V70.53261h-8.65381l-.02637.95361c0,.5625-.01953,1.34082-.05859,2.32617h9.438l-.01953.51856q-.08057,2.15917-.22022,6.29834c-.09472,2.79589-.167,4.51025-.22119,5.23974-.11328,2.07324-.70508,3.57276-1.75879,4.44824-1.0498.87159-2.70508,1.29493-5.05957,1.29493h-3.68945l-.88037-4.39991h3.40967a7.92709,7.92709,0,0,0,2.30566-.25537,1.49439,1.49439,0,0,0,.92969-.73291,4.52325,4.52325,0,0,0,.34472-1.84619l.18457-6.04541H250.579a25.35341,25.35341,0,0,1-.92383,5.20654,16.798,16.798,0,0,1-2.082,4.39063,37.56877,37.56877,0,0,1-3.81152,4.645l-.32129.34228Zm15.29443-23.72461V61.13222h-8.12011v4.92041Zm8.53467,26-1.01074-4.8003h5.33594a3.0983,3.0983,0,0,0,1.93847-.40332,2.16125,2.16125,0,0,0,.44239-1.6167V55.45253h4.63867V86.67225a5.30509,5.30509,0,0,1-1.42774,4.13379c-.94433.83887-2.47265,1.24659-4.67187,1.24659Zm-.85449-9.2002v-23.96h4.59961v23.96Z"/><path class="cls-3" d="M274.31626,55.95253V86.67225a4.824,4.824,0,0,1-1.25977,3.76026q-1.25976,1.11914-4.33984,1.12012H263.8768l-.7998-3.8003h4.71973a3.62027,3.62027,0,0,0,2.25976-.52,2.537,2.537,0,0,0,.6211-2V55.95253h3.63867M259.037,57.27235V70.03261h-8.64014l-.04,1.43994q0,1.00048-.08007,2.83984h9.44043q-.08058,2.15991-.22022,6.29981-.14062,4.14038-.22021,5.22021-.15967,2.92017-1.57959,4.1001-1.42091,1.1792-4.74024,1.17969H249.6771l-.68018-3.39991h2.79981a8.34364,8.34364,0,0,0,2.46044-.27978,1.988,1.988,0,0,0,1.21973-.98,4.96213,4.96213,0,0,0,.3999-2.06006l.2002-6.56006h-5.96a25.57263,25.57263,0,0,1-.93994,5.56006,16.22646,16.22646,0,0,1-2.02,4.25977,36.90186,36.90186,0,0,1-3.76026,4.58007l-3-2.48a27.34651,27.34651,0,0,0,3.41993-3.77978,13.60551,13.60551,0,0,0,1.86035-3.6001,20.0335,20.0335,0,0,0,.87988-4.54h-5.35986v-3.52h5.56q.11938-2.23974.11963-4.27978h-4.08007V57.27235H259.037m-12.72021,9.28028h9.12011V60.63222h-9.12011v5.92041m20.3999-7.16016v22.96H263.117v-22.96h3.59961m8.59961-4.43994h-5.63867V85.23231c0,.9849-.23566,1.21036-.26252,1.23282-.0581.04871-.40405.2872-1.61834.2872h-5.95209l.25381,1.206.79978,3.80029.16711.794h5.65131c2.32754,0,3.96438-.44895,5.004-1.37253a5.76971,5.76971,0,0,0,1.59561-4.50785V54.95253ZM260.037,56.27235H241.79673V71.03261h4.07287c-.0105.739-.03241,1.501-.06558,2.27978h-5.6069v5.52h5.24255a17.34764,17.34764,0,0,1-.7103,3.221,12.67173,12.67173,0,0,1-1.725,3.33606,26.505,26.505,0,0,1-3.29453,3.63623l-.82178.77691.87162.72052,3,2.48.72381.59832.64258-.68481a38.0541,38.0541,0,0,0,3.863-4.70957l.0668-.101.64066,3.20233.16079.80384h4.09955c2.476,0,4.23545-.46128,5.37885-1.41016,1.16531-.96808,1.81772-2.588,1.93948-4.815.05319-.71735.12592-2.4379.22113-5.24088q.13984-4.13759.22009-6.29645l.0387-1.03729h-9.438c.02658-.753.03961-1.36.03961-1.83984l.01236-.43994H260.037V56.27235Zm-12.72021,5.35987h7.12011v3.92041h-7.12011V61.63222Zm3.71871,17.20019H255.046l-.16876,5.52957a3.956,3.956,0,0,1-.28931,1.63257.98394.98394,0,0,1-.64044.48712,7.25824,7.25824,0,0,1-2.15078.23062h-2.91648a17.31935,17.31935,0,0,0,1.25278-3.02624,25.03548,25.03548,0,0,0,.90243-4.85364Zm16.68119-20.43994H262.117v24.96h5.59961v-24.96Z"/><path d="M295.4979,92.57313V75.64L293.30259,78.581l-3.085-2.90918V92.57313H285.617V77.57655a51.51885,51.51885,0,0,1-3.48438,6.09424l-.65332.97607-1.37695-6.32373.12695-.17968a33.18124,33.18124,0,0,0,2.97364-5.29932,49.25486,49.25486,0,0,0,2.27636-5.95166h-4.78222V62.33241H285.617V55.17225h4.60058v7.16016h4.75977v4.56006h-4.75977v2.94434c1.55567,1.28613,3.33008,2.83447,5.28028,4.60742V57.37245h19.51953V92.53212h-4.63965V89.85243H300.17759v2.7207Zm14.87988-7.44091V80.49257H300.17759v4.63965Zm0-9.15967V71.29237H300.17759v4.68018Zm0-9.24024V62.09266H300.17759v4.63965Z"/><path class="cls-3" d="M289.71762,55.67225v7.16016h4.75977v3.56006h-4.75977v3.68018q2.48,2.03979,5.63965,4.91992l-2.12011,2.83984-3.51954-3.31982V92.07313H286.117V75.31239a52.73669,52.73669,0,0,1-4.39942,8.08008l-1.08007-4.96a33.52151,33.52151,0,0,0,3.01953-5.37988,49.37417,49.37417,0,0,0,2.46-6.54v-.12012h-4.91992V62.83241H286.117V55.67225h3.60058m24.79981,2.2002V92.03212h-3.63965V89.35243H299.67759v2.7207H295.9979V57.87245h18.51953m-14.83984,9.35986h11.20019V61.59266H299.67759v5.63965m0,9.24024h11.20019V70.79237H299.67759v5.68018m0,9.15967h11.20019V79.99257H299.67759v5.63965m-8.96-30.96H285.117v7.16016h-4.91992v5.56006h4.59881a48.62663,48.62663,0,0,1-2.04761,5.24283,32.68834,32.68834,0,0,1-2.92645,5.21866l-.25537.36.09393.43128,1.08008,4.96.49988,2.29562,1.30792-1.95169c.901-1.34448,1.75946-2.77994,2.56873-4.29431V93.07313h5.60058V76.83052l1.83338,1.72934.81622.76993.67127-.89914.95941-1.28513V93.07313h5.67969v-2.7207h9.20019v2.67969h5.63965V56.87245H294.9979v4.96h-4.28028V54.67225Zm9.96,7.92041h9.20019v3.63965h-9.20019V62.59266Zm-9.96,4.79981h4.28028V73.3181c-1.55609-1.39945-2.9906-2.645-4.28028-3.71625V67.39247Zm9.96,4.3999h9.20019v3.68018h-9.20019V71.79237Zm0,9.2002h9.20019v3.63965h-9.20019V80.99257Z"/><path d="M320.03989,88.27919l.54883-.19727c4.66894-1.67871,8.17871-3.47363,10.43066-5.335a13.32036,13.32036,0,0,0,4.07227-5.21435H320.85727v-4.8003h14.91992v-5.3999H322.577V62.6122h8.03906c-1.91406-2.63037-3.27246-4.42432-4.041-5.33789l-.38184-.45362,4.167-2.43945s1.81641,2.30127,2.8291,3.58057q1.52344,1.9248,2.56543,3.2871l.3418.44727-1.5498.916h5.37109c.96-1.19434,2.02148-2.584,3.15625-4.13526,1.18359-1.61816,2.12012-2.96191,2.78223-3.99463l.25586-.39843,4.49511,2.54736-.32226.45166c-1.2793,1.79053-2.69922,3.647-4.23047,5.5293h7.92285v4.72021H340.77426l-.03417,5.3999h15.07714v4.8003H341.49106a16.11381,16.11381,0,0,0,5.043,5.938,27.60355,27.60355,0,0,0,9.627,4.27735l.59278.15137-2.33106,4.81054-.40527-.11719A31.19851,31.19851,0,0,1,344.3436,88.017a21.63749,21.63749,0,0,1-5.9043-6.33691c-2.74609,4.53564-7.958,8.24121-15.50879,11.02148l-.40527.14893Z"/><path class="cls-3" d="M346.27719,54.75233l3.60059,2.04q-2.2002,3.08057-4.87988,6.31983h8.47949v3.72021h-13.2002l-.04,6.3999h15.08007v3.8003H340.71762a16.32506,16.32506,0,0,0,5.51954,6.83984,27.95594,27.95594,0,0,0,9.7998,4.35986l-1.87988,3.87989a30.54513,30.54513,0,0,1-9.51953-4.5,20.84866,20.84866,0,0,1-6.2002-6.93995Q334.598,87.8727,322.75766,92.23231l-2-3.67968q7.11915-2.55982,10.58008-5.42041a13.13138,13.13138,0,0,0,4.46-6.09961H321.35727v-3.8003h14.91992v-6.3999H323.077V63.1122h8.52051q-3.36036-4.63917-4.63965-6.15967l3.2793-1.91992q1.04,1.31982,2.56054,3.23974,1.519,1.92042,2.55957,3.28028l-2.63965,1.55957h7.43946q1.52051-1.8794,3.32031-4.33985,1.8003-2.4602,2.7998-4.02m-.33068-1.33673-.51111.79691c-.65656,1.02377-1.58686,2.35922-2.765,3.9693-1.07171,1.46457-2.07672,2.78454-2.99243,3.93039h-3.30188l.46033-.272-.68494-.89523c-.69153-.9039-1.556-2.01184-2.56946-3.293q-1.52022-1.91927-2.55938-3.23828l-.53913-.68411-.75158.44006-3.2793,1.91992-1.02332.59912.76325.90753c.68152.81031,1.83581,2.32581,3.43988,4.516H322.077v5.72021h13.20019v4.3999H320.35727v5.8003h13.96558a13.57714,13.57714,0,0,1-3.62232,4.32891c-2.20733,1.82438-5.6665,3.59079-10.28125,5.2501l-1.09686.39441.55664,1.02413,2,3.67969.41284.75962.81128-.29877c7.28485-2.68247,12.43274-6.22864,15.33326-10.55673a22.32479,22.32479,0,0,0,5.61425,5.80789,31.6764,31.6764,0,0,0,9.82807,4.65082l.81036.23483.36792-.75928,1.87982-3.87988L357.471,87.566l-1.187-.30264a27.10682,27.10682,0,0,1-9.45227-4.19489,15.86189,15.86189,0,0,1-4.51794-5.03582h14.00341v-5.8003H341.24344l.02753-4.3999h13.20642V62.1122h-7.3772c1.28809-1.611,2.49164-3.19883,3.59137-4.73862l.64545-.90378-.96625-.54748-3.60058-2.04-.82367-.46668Z"/><path d="M361.01743,90.05263V58.13222h10.37988c3.63672,0,6.49317.72461,8.49121,2.15332a7.28085,7.28085,0,0,1,3.08887,6.26709,7.09767,7.09767,0,0,1-1.53223,4.61572,7.60493,7.60493,0,0,1-2.93066,2.15576,8.15424,8.15424,0,0,1,4.00391,2.20264,7.17075,7.17075,0,0,1,1.93945,5.1455,8.10578,8.10578,0,0,1-3.42969,6.98682c-2.22266,1.58838-5.42285,2.39356-9.51074,2.39356Zm9.94043-5.2002a11.44981,11.44981,0,0,0,5.917-1.2456,3.67926,3.67926,0,0,0,1.90234-3.33448,3.26856,3.26856,0,0,0-1.88378-3.0039,12.34433,12.34433,0,0,0-5.89551-1.13623H366.537v8.72021Zm-.08008-13.91992a8.682,8.682,0,0,0,4.80273-1.11621,3.28253,3.28253,0,0,0,1.57715-2.90381,2.83877,2.83877,0,0,0-1.55371-2.58936,9.764,9.764,0,0,0-4.86621-.99072H366.537v7.6001Z"/><path class="cls-3" d="M371.39731,58.63222q5.31885,0,8.2002,2.06005a6.7771,6.7771,0,0,1,2.87988,5.86036,6.58081,6.58081,0,0,1-1.41992,4.2998,7.64423,7.64423,0,0,1-4.02051,2.46v.24024a8.35184,8.35184,0,0,1,5.12012,2.31982,6.6586,6.6586,0,0,1,1.80078,4.7998,7.598,7.598,0,0,1-3.2207,6.58008q-3.21974,2.30053-9.21973,2.3003h-10V58.63222h9.87988M366.037,71.43251h4.84082a9.11479,9.11479,0,0,0,5.08008-1.2002,3.78192,3.78192,0,0,0,1.7998-3.31982,3.33127,3.33127,0,0,0-1.7998-3.02,10.18541,10.18541,0,0,0-5.12012-1.06006H366.037v8.6001m0,13.91992h4.9209a11.86552,11.86552,0,0,0,6.17969-1.31982,4.18031,4.18031,0,0,0,2.13964-3.76026,3.76207,3.76207,0,0,0-2.13964-3.43994,12.74668,12.74668,0,0,0-6.13965-1.20019H366.037v9.72021m5.36035-27.72021H360.51743V90.55263h11c4.19421,0,7.49182-.83664,9.80109-2.48664a8.58023,8.58023,0,0,0,3.63934-7.39374,7.65507,7.65507,0,0,0-2.07837-5.49127,8.14777,8.14777,0,0,0-3.05109-1.9703,7.73041,7.73041,0,0,0,2.00367-1.7258,7.58345,7.58345,0,0,0,1.64532-4.93225,7.75643,7.75643,0,0,0-3.29791-6.67356c-2.08484-1.491-5.03949-2.24685-8.78217-2.24685ZM367.037,63.83241h3.80078a9.29787,9.29787,0,0,1,4.613.922,2.34592,2.34592,0,0,1,1.30688,2.15811,2.78091,2.78091,0,0,1-1.35467,2.48788,8.21533,8.21533,0,0,1-4.52521,1.03214H367.037v-6.6001Zm0,12.79981h3.96094a11.87647,11.87647,0,0,1,5.65069,1.07247,2.77235,2.77235,0,0,1,1.6286,2.56766,3.17628,3.17628,0,0,1-1.665,2.9094,10.99023,10.99023,0,0,1-5.6543,1.17068H367.037V76.63222Z"/><path d="M397.99692,90.6122a10.86172,10.86172,0,0,1-5.69824-1.47168,9.64243,9.64243,0,0,1-3.75391-4.23438,16.26328,16.26328,0,0,1,.001-12.689,9.78635,9.78635,0,0,1,3.751-4.231,11.55073,11.55073,0,0,1,11.36132-.00049,9.93775,9.93775,0,0,1,3.76954,4.22852,16.03752,16.03752,0,0,1,0,12.69482,9.77328,9.77328,0,0,1-3.77149,4.23145A10.79155,10.79155,0,0,1,397.99692,90.6122Zm0-19a4.53515,4.53515,0,0,0-3.80566,1.80761,8.18676,8.18676,0,0,0-1.4541,5.13282,8.26857,8.26857,0,0,0,1.45507,5.15429,4.919,4.919,0,0,0,7.64942,0,8.26858,8.26858,0,0,0,1.45508-5.15429,8.18676,8.18676,0,0,0-1.45411-5.13282A4.57638,4.57638,0,0,0,397.99692,71.6122Z"/><path class="cls-3" d="M397.99692,66.99257a10.14218,10.14218,0,0,1,5.40039,1.41992,9.39629,9.39629,0,0,1,3.58008,4.02,15.54346,15.54346,0,0,1,0,12.25976,9.24213,9.24213,0,0,1-3.58008,4.02,11.19177,11.19177,0,0,1-10.83984,0,9.10668,9.10668,0,0,1-3.56055-4.02,15.76865,15.76865,0,0,1,0-12.25976,9.25629,9.25629,0,0,1,3.56055-4.02,10.21162,10.21162,0,0,1,5.43945-1.41992m0,19.04a5.07249,5.07249,0,0,0,4.24024-2.02,8.70993,8.70993,0,0,0,1.55957-5.46,8.62618,8.62618,0,0,0-1.55957-5.44043,5.45249,5.45249,0,0,0-8.44043,0,8.62611,8.62611,0,0,0-1.55957,5.44043,8.70987,8.70987,0,0,0,1.55957,5.46,5.03183,5.03183,0,0,0,4.20019,2.02m0-20.04a11.23945,11.23945,0,0,0-5.96155,1.567,10.28083,10.28083,0,0,0-3.94116,4.44269,16.75715,16.75715,0,0,0-.001,13.1181,10.12894,10.12894,0,0,0,3.94776,4.44822,12.1869,12.1869,0,0,0,11.87292,0,10.26707,10.26707,0,0,0,3.9646-4.44263,16.53191,16.53191,0,0,0-.0011-13.12933,10.42315,10.42315,0,0,0-3.95776-4.43689,11.16979,11.16979,0,0,0-5.92267-1.56714Zm0,19.04a4.04661,4.04661,0,0,1-3.40875-1.63126,7.79252,7.79252,0,0,1-1.351-4.84872,7.71132,7.71132,0,0,1,1.3482-4.8256,4.45338,4.45338,0,0,1,6.86334.00031,7.71078,7.71078,0,0,1,1.348,4.82529,7.79261,7.79261,0,0,1-1.3509,4.8486,4.08691,4.08691,0,0,1-3.44891,1.63138Z"/><path d="M420.83579,90.85243a7.002,7.002,0,0,1-5.32324-1.97656,7.82291,7.82291,0,0,1-1.85645-5.56348V72.17225h-3.44043V67.05263h3.44043V60.33241h5.35938v6.72022h6.12011v5.11962h-6.12011V82.83241a2.8982,2.8982,0,0,0,.71777,2.13037,2.73151,2.73151,0,0,0,2.0625.72949,6.58292,6.58292,0,0,0,2.19336-.41113l.667-.2373v5.146l-.33887.11573A10.75691,10.75691,0,0,1,420.83579,90.85243Z"/><path class="cls-3" d="M418.51548,60.83241v6.72022h6.12011v4.11962h-6.12011V82.83241a3.39918,3.39918,0,0,0,.86035,2.48,3.22756,3.22756,0,0,0,2.41992.87988,7.04943,7.04943,0,0,0,2.36035-.43994v4.08008a10.21241,10.21241,0,0,1-3.32031.52,6.49975,6.49975,0,0,1-4.96-1.81982,7.31347,7.31347,0,0,1-1.71973-5.22022V71.67225h-3.44043V67.55263h3.44043V60.83241h4.35938m1-1H413.1561v6.72022h-3.44043v6.11962h3.44043V83.31239a8.29843,8.29843,0,0,0,1.99286,5.907,7.48043,7.48043,0,0,0,5.68683,2.133,11.2557,11.2557,0,0,0,3.64349-.5737l.67682-.23114V84.33568l-1.33484.47439a6.08942,6.08942,0,0,1-2.02551.3822,2.2634,2.2634,0,0,1-1.70453-.57861,2.43426,2.43426,0,0,1-.57574-1.78125V72.67225h6.12011V66.55263h-6.12011V59.83241Z"/><polygon points="169.224 45.059 169.224 17.66 160.418 17.66 160.418 13.74 181.868 13.74 181.868 17.66 173.098 17.66 173.098 45.059 169.224 45.059"/><path class="cls-3" d="M181.36753,14.23964v2.91992h-8.769v27.3999h-2.874V17.15956h-8.80615V14.23964h20.44922m1-1H159.91831v4.91992h8.80615v27.3999h4.874V18.15956h8.769V13.23964Z"/><path d="M181.0521,45.05946V22.93934h3.72607v3.28321a9.857,9.857,0,0,1,2.49854-2.45655,8.02716,8.02716,0,0,1,4.59179-1.38671h.79492v4.20019h-.86865a7.94389,7.94389,0,0,0-3.72851.84229,6.2649,6.2649,0,0,0-2.44385,2.18457,5.184,5.184,0,0,0-.84424,2.793V45.05946Z"/><path class="cls-3" d="M192.16342,22.87929v3.20019h-.36865a8.39258,8.39258,0,0,0-3.96093.8999,6.72748,6.72748,0,0,0-2.63428,2.36036,5.64878,5.64878,0,0,0-.92139,3.05957V44.55946H181.5521V23.43934h2.72607v4.24024h.18457a9.644,9.644,0,0,1,3.09473-3.5,7.50412,7.50412,0,0,1,4.311-1.30029h.29492m1-1H191.8685a8.51993,8.51993,0,0,0-4.87243,1.47274,10.177,10.177,0,0,0-1.7179,1.47025V22.43934H180.5521V45.55946h4.72607V32.39931a4.62738,4.62738,0,0,1,.76715-2.526,5.77227,5.77227,0,0,1,2.25366-2.00866,7.4457,7.4457,0,0,1,3.49579-.78516h1.36865V21.87929Z"/><path d="M200.08481,45.61952a6.807,6.807,0,0,1-4.87744-1.71826,6.06033,6.06033,0,0,1-1.8125-4.58154c0-4.84424,3.45313-7.3003,10.26367-7.3003h2.374V30.5995a4.6948,4.6948,0,0,0-1.11817-3.31885,3.95184,3.95184,0,0,0-3.061-1.18115,7.03644,7.03644,0,0,0-4.6377,2.14941l-.395.35987-2.229-2.8042.31006-.31543a9.70346,9.70346,0,0,1,7.09912-3.10986,7.25749,7.25749,0,0,1,7.79492,7.82031V45.05946h-3.76318V42.7704a7.37243,7.37243,0,0,1-2.02588,1.75879A7.56945,7.56945,0,0,1,200.08481,45.61952Zm4.08985-9.87988a12.29232,12.29232,0,0,0-5.42286.90234,2.62631,2.62631,0,0,0-1.55713,2.47754,2.48783,2.48783,0,0,0,.856,2.019,3.77245,3.77245,0,0,0,2.51319.76075,5.86147,5.86147,0,0,0,2.52929-.61084,5.34227,5.34227,0,0,0,2.10645-1.832,5.084,5.084,0,0,0,.833-2.937v-.77978Z"/><path class="cls-3" d="M202.00083,22.87929a6.76213,6.76213,0,0,1,7.29492,7.32031V44.55946h-2.76318V41.35927h-.18409a6.71756,6.71756,0,0,1-2.59765,2.74023,7.04487,7.04487,0,0,1-3.666,1.02,6.2984,6.2984,0,0,1-4.53222-1.58008,5.55524,5.55524,0,0,1-1.65772-4.21972q0-6.79981,9.76367-6.8003h2.874V30.5995a5.1496,5.1496,0,0,0-1.25293-3.66016,4.4633,4.4633,0,0,0-3.42627-1.33984,7.47738,7.47738,0,0,0-4.97412,2.27979l-1.6211-2.03955a9.181,9.181,0,0,1,6.74268-2.96045m-1.437,19.52a6.32649,6.32649,0,0,0,2.74462-.65967,5.80667,5.80667,0,0,0,2.30323-2,5.54917,5.54917,0,0,0,.9209-3.22022V35.23964h-2.35791a12.67229,12.67229,0,0,0-5.65577.96,3.11371,3.11371,0,0,0-1.82422,2.91992,2.9869,2.9869,0,0,0,1.03174,2.3999,4.231,4.231,0,0,0,2.83741.87989m1.437-20.52a10.186,10.186,0,0,0-7.45575,3.25936l-.62021.6308.55044.69251,1.6211,2.03955.66528.837.79071-.71972a6.564,6.564,0,0,1,4.301-2.01929,3.47989,3.47989,0,0,1,2.6958,1.0228,4.161,4.161,0,0,1,.9834,2.9772v.91992h-1.874c-8.89627,0-10.76367,4.24182-10.76367,7.8003a6.54091,6.54091,0,0,0,1.96793,4.94372,7.28638,7.28638,0,0,0,5.222,1.85608,8.25958,8.25958,0,0,0,5.44776-2.09085v1.53079h4.76318V30.1996a7.75319,7.75319,0,0,0-8.29492-8.32031Zm-1.437,19.52a3.29966,3.29966,0,0,1-2.18815-.64045,1.99309,1.99309,0,0,1-.681-1.63934,2.11464,2.11464,0,0,1,1.29007-2.03506,11.85046,11.85046,0,0,1,5.18992-.84482h1.35791v.27978a4.53545,4.53545,0,0,1-.74524,2.65412,4.78213,4.78213,0,0,1-1.90976,1.66369,5.36453,5.36453,0,0,1-2.31375.56208Z"/><path d="M227.29233,45.05946V31.71962a6.31823,6.31823,0,0,0-1.26807-4.12256,3.81346,3.81346,0,0,0-3.0957-1.49756,4.75062,4.75062,0,0,0-3.77,1.65039,6.28258,6.28258,0,0,0-1.478,4.28955v13.02h-3.72607V22.93934h3.72607v2.32959a7.78177,7.78177,0,0,1,5.91114-2.88964,6.78157,6.78157,0,0,1,5.46826,2.3789,9.844,9.844,0,0,1,1.959,6.48145V45.05946Z"/><path class="cls-3" d="M223.59165,22.87929a6.27715,6.27715,0,0,1,5.085,2.20019,9.3239,9.3239,0,0,1,1.84228,6.16016V44.55946h-2.72656V31.71962a6.76883,6.76883,0,0,0-1.38183-4.43994,4.32175,4.32175,0,0,0-3.48194-1.68018,5.26841,5.26841,0,0,0-4.145,1.81983,6.73648,6.73648,0,0,0-1.603,4.62011v12.52h-2.72607V23.43934h2.72607v3.24024h.18458a6.81279,6.81279,0,0,1,2.61572-2.76025,6.91934,6.91934,0,0,1,3.61084-1.04m0-1a7.93467,7.93467,0,0,0-4.12549,1.18264,8.33292,8.33292,0,0,0-1.28565.94706V22.43934h-4.72607V45.55946h4.72607v-13.52a5.72234,5.72234,0,0,1,1.3537-3.95944,4.27445,4.27445,0,0,1,3.39435-1.4805,3.34032,3.34032,0,0,1,2.70966,1.31543,5.83686,5.83686,0,0,1,1.15411,3.80469V45.55946h4.72656V31.23964a10.32067,10.32067,0,0,0-2.07553-6.8021,7.25973,7.25973,0,0,0-5.85171-2.55825Z"/><path d="M241.97739,45.61952a9.227,9.227,0,0,1-5.021-1.33789,8.87516,8.87516,0,0,1-3.23877-3.62061l-.19873-.40185,3.15332-2.01074.25489.47363a6.22242,6.22242,0,0,0,2.13086,2.355,5.48484,5.48484,0,0,0,2.99267.82227,4.72766,4.72766,0,0,0,2.85254-.76123,2.39331,2.39331,0,0,0,.01123-3.82276,9.62049,9.62049,0,0,0-3.5293-1.38916,13.21234,13.21234,0,0,1-5.2788-2.42725,5.26219,5.26219,0,0,1-1.85059-4.17919,6.56871,6.56871,0,0,1,2.05957-5.06885,7.87785,7.87785,0,0,1,5.51465-1.87158,8.57919,8.57919,0,0,1,4.55371,1.21386,9.474,9.474,0,0,1,3.24853,3.4375l.2168.37842L246.88022,29.703l-.28711-.49121a6.74964,6.74964,0,0,0-2.14062-2.33155,4.8703,4.8703,0,0,0-2.65967-.78076,4.278,4.278,0,0,0-2.74463.80908,2.48031,2.48031,0,0,0-.95557,2.05078,2.23024,2.23024,0,0,0,1.03321,1.83936,10.428,10.428,0,0,0,3.52929,1.47705c4.64551,1.09277,7.00684,3.26172,7.00684,6.44385a6.447,6.447,0,0,1-2.10254,5.05322A8.12552,8.12552,0,0,1,241.97739,45.61952Z"/><path class="cls-3" d="M241.82993,22.87929a8.05282,8.05282,0,0,1,4.29248,1.14013,8.94484,8.94484,0,0,1,3.07617,3.26026l-2.17383,1.67968a7.2015,7.2015,0,0,0-2.30273-2.5,5.33778,5.33778,0,0,0-2.9292-.85986,4.73286,4.73286,0,0,0-3.05811.91992,2.97648,2.97648,0,0,0-1.14209,2.43994A2.72,2.72,0,0,0,238.827,31.1996a10.84806,10.84806,0,0,0,3.70264,1.56006q6.63207,1.56006,6.63232,5.96a5.94271,5.94271,0,0,1-1.93457,4.67969,7.61414,7.61414,0,0,1-5.25,1.72021,8.6974,8.6974,0,0,1-4.75342-1.26025,8.342,8.342,0,0,1-3.0581-3.41993l2.32129-1.48a6.68473,6.68473,0,0,0,2.30273,2.54,5.95264,5.95264,0,0,0,3.26074.89991,5.17821,5.17821,0,0,0,3.15039-.85987,2.893,2.893,0,0,0,.01856-4.62011,10.02487,10.02487,0,0,0-3.72119-1.48,12.6625,12.6625,0,0,1-5.06641-2.31982,4.76106,4.76106,0,0,1-1.67627-3.7998,6.06269,6.06269,0,0,1,1.89746-4.7002,7.36469,7.36469,0,0,1,5.17676-1.74023m0-1a8.35732,8.35732,0,0,0-5.85275,2.00335,7.0487,7.0487,0,0,0-2.22147,5.43708,5.74214,5.74214,0,0,0,2.02487,4.55853,13.47922,13.47922,0,0,0,5.46686,2.52908,8.95563,8.95563,0,0,1,3.36243,1.30463,1.893,1.893,0,0,1-.004,3.02392,4.25061,4.25061,0,0,1-2.55521.66343,4.93,4.93,0,0,1-2.72479-.74415A5.65322,5.65322,0,0,1,237.3675,38.485l-.5105-.94739-.90744.57855-2.32129,1.48-.75659.4824.39789.80426a9.36528,9.36528,0,0,0,3.4194,3.82132,9.71718,9.71718,0,0,0,5.28842,1.4154,8.60912,8.60912,0,0,0,5.91458-1.973,6.92638,6.92638,0,0,0,2.27-5.42691c0-3.4451-2.49084-5.77783-7.40335-6.93338a9.92108,9.92108,0,0,1-3.33368-1.38819,1.70435,1.70435,0,0,1-.83231-1.43869,1.98261,1.98261,0,0,1,.76954-1.66128,3.79662,3.79662,0,0,1,2.43066-.69858,4.31923,4.31923,0,0,1,2.391.7027,6.24918,6.24918,0,0,1,1.97754,2.16174l.57425.98255.90054-.69584L249.81,28.071l.68967-.53287-.43366-.756a9.97132,9.97132,0,0,0-3.42083-3.61518,9.07361,9.07361,0,0,0-4.81525-1.28765Z"/><path d="M265.90415,45.05946V13.73964h8.64355c3.24414,0,5.78516.70947,7.54981,2.10791a7.33322,7.33322,0,0,1,2.71386,6.07178,7.21445,7.21445,0,0,1-1.42871,4.48339,6.89413,6.89413,0,0,1-2.65234,2.103,7.55208,7.55208,0,0,1,3.65918,2.2207,7.43278,7.43278,0,0,1,1.82226,5.11329,8.22407,8.22407,0,0,1-3.085,6.854c-2.00879,1.56982-4.88379,2.36572-8.543,2.36572Zm8.27441-3.91992a10.59683,10.59683,0,0,0,6.05176-1.4502,4.58854,4.58854,0,0,0,1.99707-4.0498,4.07122,4.07122,0,0,0-1.93164-3.64258,10.79089,10.79089,0,0,0-5.89551-1.3374H269.742v10.48Zm.22168-14.43994a7.85987,7.85987,0,0,0,4.80078-1.27881,4.05705,4.05705,0,0,0,1.626-3.46143,3.52291,3.52291,0,0,0-1.63867-3.144,9.07637,9.07637,0,0,0-5.00977-1.15576H269.742v9.04Z"/><path class="cls-3" d="M274.5477,14.23964q4.71534,0,7.23926,2a6.82726,6.82726,0,0,1,2.52441,5.67969,6.50171,6.50171,0,0,1-4.97461,6.56005v.24024a7.4919,7.4919,0,0,1,4.67969,2.33984,6.91507,6.91507,0,0,1,1.69531,4.78028,7.71644,7.71644,0,0,1-2.89257,6.46q-2.89306,2.26024-8.23535,2.25976h-8.17969V14.23964h8.14355m-5.30566,12.96h5.1582a8.29969,8.29969,0,0,0,5.10254-1.37988,4.56421,4.56421,0,0,0,1.82422-3.86036,4.02445,4.02445,0,0,0-1.86133-3.56005,9.50284,9.50284,0,0,0-5.28711-1.23975H269.242v10.04m0,14.43994h4.93652a11.01869,11.01869,0,0,0,6.33789-1.54,5.09839,5.09839,0,0,0,2.21094-4.46,4.5759,4.5759,0,0,0-2.15625-4.06006,11.2112,11.2112,0,0,0-6.1709-1.41992H269.242v11.48m5.30566-28.3999h-9.14355V45.55946h9.17969c3.77374,0,6.75164-.8316,8.851-2.47174a8.70039,8.70039,0,0,0,3.27691-7.248,7.9159,7.9159,0,0,0-1.949-5.44581,7.76815,7.76815,0,0,0-2.81067-1.99,7.29038,7.29038,0,0,0,1.82825-1.698,7.70406,7.70406,0,0,0,1.531-4.78659,7.80935,7.80935,0,0,0-2.90332-6.46341c-1.85559-1.47062-4.50024-2.21628-7.86035-2.21628ZM270.242,18.15956h3.93652a8.61049,8.61049,0,0,1,4.73273,1.072,3.01819,3.01819,0,0,1,1.41571,2.72781,3.58613,3.58613,0,0,1-1.4278,3.06305,7.3902,7.3902,0,0,1-4.499,1.17719H270.242v-8.04Zm0,13h4.1582a10.326,10.326,0,0,1,5.62079,1.255,3.56061,3.56061,0,0,1,1.70636,3.225,4.1193,4.1193,0,0,1-1.78247,3.63937,10.13152,10.13152,0,0,1-5.76636,1.36063H270.242v-9.48Z"/><path d="M298.38559,45.61952a8.63458,8.63458,0,0,1-4.94043-1.4458,9.22577,9.22577,0,0,1-3.27441-4.09619,15.31474,15.31474,0,0,1-1.12793-6.07813,15.318,15.318,0,0,1,1.12793-6.07812,9.23118,9.23118,0,0,1,3.27441-4.0957,9.16291,9.16291,0,0,1,9.88184,0,9.23206,9.23206,0,0,1,3.27344,4.0957,15.31821,15.31821,0,0,1,1.12793,6.07812,15.31492,15.31492,0,0,1-1.12793,6.07813,9.22937,9.22937,0,0,1-3.27344,4.09619A8.64212,8.64212,0,0,1,298.38559,45.61952Zm0-19.43994a4.6669,4.6669,0,0,0-3.98047,2.05566,9.59066,9.59066,0,0,0-1.56152,5.76416,9.58861,9.58861,0,0,0,1.56152,5.76416,4.88188,4.88188,0,0,0,7.96192,0,9.58861,9.58861,0,0,0,1.56152-5.76416,9.59066,9.59066,0,0,0-1.56152-5.76416A4.66977,4.66977,0,0,0,298.38559,26.17958Z"/><path class="cls-3" d="M298.38559,22.87929a8.11673,8.11673,0,0,1,4.66114,1.36035,8.70149,8.70149,0,0,1,3.09472,3.87988,14.75008,14.75008,0,0,1,1.08692,5.87988,14.74675,14.74675,0,0,1-1.08692,5.87989,8.70029,8.70029,0,0,1-3.09472,3.88037,8.66664,8.66664,0,0,1-9.32129,0,8.69548,8.69548,0,0,1-3.09571-3.88037,14.74676,14.74676,0,0,1-1.08691-5.87989,14.75008,14.75008,0,0,1,1.08691-5.87988,8.69667,8.69667,0,0,1,3.09571-3.87988,8.11138,8.11138,0,0,1,4.66015-1.36035m0,19.44043a5.18221,5.18221,0,0,0,4.38477-2.26026,10.024,10.024,0,0,0,1.6582-6.06006,10.02605,10.02605,0,0,0-1.6582-6.06006,5.383,5.383,0,0,0-8.76856,0,10.02612,10.02612,0,0,0-1.6582,6.06006,10.02411,10.02411,0,0,0,1.6582,6.06006,5.1793,5.1793,0,0,0,4.38379,2.26026m0-20.44043a9.128,9.128,0,0,0-5.221,1.53241,9.71946,9.71946,0,0,0-3.45312,4.31182,15.80524,15.80524,0,0,0-1.16864,6.27588,15.80137,15.80137,0,0,0,1.1687,6.276,9.71683,9.71683,0,0,0,3.45367,4.31257,9.66451,9.66451,0,0,0,10.44208-.00019,9.72132,9.72132,0,0,0,3.45246-4.3125,15.80142,15.80142,0,0,0,1.16864-6.27588,15.80418,15.80418,0,0,0-1.1687-6.27588,9.72347,9.72347,0,0,0-3.45221-4.31189,9.13418,9.13418,0,0,0-5.22187-1.53234Zm0,19.44043a4.19512,4.19512,0,0,1-3.57727-1.85144,9.11141,9.11141,0,0,1-1.46472-5.46888,9.11337,9.11337,0,0,1,1.46448-5.46853,4.38328,4.38328,0,0,1,7.15619.00024,9.11347,9.11347,0,0,1,1.46429,5.46829,9.1111,9.1111,0,0,1-1.46441,5.46842,4.19836,4.19836,0,0,1-3.57856,1.8519Z"/><path d="M318.17173,45.81972a5.45612,5.45612,0,0,1-4.39747-1.83789,7.65747,7.65747,0,0,1-1.51855-5.0625V26.73964h-3.05762v-3.8003h3.05762v-6.5996h3.76367v6.5996h5.63672v3.8003h-5.63672V38.67958a3.89189,3.89189,0,0,0,.73242,2.54,2.39863,2.39863,0,0,0,1.97266.83984,5.69924,5.69924,0,0,0,1.81934-.41015l.67089-.24317V45.205l-.29785.13135A6.83157,6.83157,0,0,1,318.17173,45.81972Z"/><path class="cls-3" d="M315.51938,16.83974v6.5996h5.63672v2.8003h-5.63672V38.67958a4.35011,4.35011,0,0,0,.84766,2.85986,2.89547,2.89547,0,0,0,2.35742,1.02,6.1344,6.1344,0,0,0,1.99023-.43994v2.75977a6.31963,6.31963,0,0,1-2.543.44043,4.96089,4.96089,0,0,1-4.01563-1.66016,7.15342,7.15342,0,0,1-1.40039-4.74023V26.23964h-3.05762v-2.8003h3.05762v-6.5996h2.76367m1-1h-4.76367v6.5996h-3.05762v4.8003h3.05762V38.91933a8.137,8.137,0,0,0,1.63611,5.3851,5.93419,5.93419,0,0,0,4.77991,2.01529,7.32114,7.32114,0,0,0,2.94769-.526l.59527-.26346V40.69313l-1.34094.4863a5.09727,5.09727,0,0,1-1.64929.38,1.90562,1.90562,0,0,1-1.58789-.65863,3.42589,3.42589,0,0,1-.61719-2.22125V27.23964h5.63672v-4.8003h-5.63672v-6.5996Z"/></svg>