<svg id="图层_1" data-name="图层 1" xmlns="http://www.w3.org/2000/svg" viewBox="0 0 426.63559 99.63921"><defs><style>.cls-1{fill:#f5a9b8;}.cls-2{fill:#5bcefa;}.cls-3{fill:#fff;}.cls-4,.cls-6{fill:none;stroke:#231815;stroke-miterlimit:10;}.cls-4{stroke-width:5px;}.cls-5{fill:#231815;}.cls-6{stroke-width:3px;}</style></defs><rect class="cls-1" x="1.92607" y="22.83333" width="135.55556" height="19.44444"/><rect class="cls-2" x="1.92607" y="76.16667" width="135.55556" height="19.44444"/><rect class="cls-2" x="1.92607" y="3.83333" width="135.55556" height="19.88889"/><rect class="cls-1" x="1.92607" y="59.16667" width="135.55556" height="19.88889"/><rect class="cls-3" x="1.92607" y="42.27778" width="135.55556" height="19.88889"/><rect class="cls-4" x="2.5" y="2.5" width="135.53718" height="94.63921" rx="7"/><circle class="cls-5" cx="45.99081" cy="46" r="7.38889"/><circle class="cls-5" cx="94.54637" cy="46" r="7.38889"/><path class="cls-6" d="M70.26859,71.349A10.70828,10.70828,0,0,0,80.9769,60.6407H59.56028A10.70828,10.70828,0,0,0,70.26859,71.349Z"/><rect class="cls-5" x="11.06495" y="0.33333" width="8.69985" height="17.83333" rx="1"/><rect class="cls-5" x="121.73162" y="0.33333" width="8.69985" height="17.83333" rx="1"/><rect class="cls-5" x="22.60192" y="9.25" width="95.33333" height="2.86111"/><path class="cls-5" d="M24.56631,84.657c2.46849,0,14.17889-10.95747,7.50647-15.67526s-15.614,4.87-15.614,4.87C15.21861,76.29061,22.09783,84.657,24.56631,84.657Z"/><path class="cls-5" d="M117.34622,84.657c-2.46849,0-14.17889-10.95747-7.50647-15.67526s15.614,4.87,15.614,4.87C126.69392,76.29061,119.81471,84.657,117.34622,84.657Z"/><path d="M179.86509,92.59266l-1.1001-5.24023h7.43213a2.56759,2.56759,0,0,0,1.37988-.24853,1.20926,1.20926,0,0,0,.35156-.7837c.08447-.40087.17383-.96728.27735-1.74023.01416-.07666.02783-.15234.0415-.22754H175.7479l1.16015-6.08008H174.8768v1.3999h-3.11963v4.22754c1.355-.2207,2.26026-.38281,2.69776-.48242l1.13867-.25928.20068,2.88477.17872,2.79785-.90284.14014c-1.89795.29394-4.23291.6831-6.94091,1.15625q-4.11841.72-7.03711,1.23974l-1.064.18946-.55908-5.65381,1.84766-.29346V71.59266h4.92041v13.2295l.27978-.04444V71.31239h-5V56.59266h13.2002v1.83985h6.605c.34814-1.05274.66406-2.17627.94189-3.35059l.21045-.88867,5.32666.76123-.22656,1.04932c-.18653.86328-.38526,1.67529-.59424,2.42871h9.65674v5.35986h-5.084a13.741,13.741,0,0,0,5.55518,4.77783l.91846.439-1.9917,3.9834h.68213v5.27978H182.4476l-.17724.83985h12.12988l-.41015,3.51611c-.24122,1.63916-.42725,3.15576-.55762,4.53809a8.66527,8.66527,0,0,1-.999,3.14257,4.23642,4.23642,0,0,1-2.23144,1.80176,10.21625,10.21625,0,0,1-3.48486.48193ZM174.037,74.23231v-.84277l-1.24658-2.07715h-1.03321v2.91992Zm19.91895-1.23974a20.27357,20.27357,0,0,1-2.55909-1.7583v.79834H178.51694v-.51612q-.92871.75805-1.94238,1.47608Zm-19.23877-5.43311a19.38227,19.38227,0,0,0,2.2373-1.87842,16.97807,16.97807,0,0,0,1.647-1.88867h-3.88427Zm12.68408-.60693a21.281,21.281,0,0,1-1.81153-3.16016h-.65332a22.3937,22.3937,0,0,1-1.98388,3.16016ZM169.557,65.71229v-3.52h-2.76025v3.52Z"/><path class="cls-3" d="M183.23716,55.31239l3.35986.48a37.60274,37.60274,0,0,1-.96,3.64014h10v3.35986h-5.84033a14.77456,14.77456,0,0,0,6.88037,6.68018l-1.52,3.04a19.45851,19.45851,0,0,1-4.76026-3.52v2.04H179.51694V69.31239a33.52053,33.52053,0,0,1-4.6001,3.6001l-1.56006-2.6001h-2.59961v4.91992h3.11963v3.43994h-3.11963v6.4004q3.03882-.48048,3.91993-.68018l.11963,1.71973.12011,1.88037q-2.84033.44017-6.96,1.15967-4.11987.72-7.04,1.24023l-.35986-3.64014,1.75977-.27978V72.59266h2.92041V85.99257l2.27978-.36035V70.31239h-5V57.59266h11.2002V69.43251a22.381,22.381,0,0,0,3.93994-3.04,18.14687,18.14687,0,0,0,2.81982-3.6001h-5.31982V59.43251H182.037a39.88882,39.88882,0,0,0,1.2002-4.12012m-17.44043,11.3999H170.557v-5.52h-4.76025v5.52m15.04,1.24024h8.6001a19.96333,19.96333,0,0,1-3.1997-5.16016h-1.92041a21.68706,21.68706,0,0,1-3.48,5.16016m14.88038,6.04v3.27978H181.63706l-.6001,2.83985h12.23975l-.27979,2.40039q-.35962,2.44042-.56006,4.56006a7.69369,7.69369,0,0,1-.85986,2.71972,3.24381,3.24381,0,0,1-1.72022,1.37988,9.37057,9.37057,0,0,1-3.13964.42041h-6.04l-.68018-3.24023h6.2002a3.524,3.524,0,0,0,1.93994-.41992,2.03351,2.03351,0,0,0,.77978-1.46q.12012-.55957.28028-1.76026.11938-.63941.23974-1.35986h-12.48l1.16016-6.08008H175.037V73.99257h20.68018m-14.00547-20.9184-.42074,1.77759c-.21161.89407-.44565,1.7576-.69919,2.58075h-4.8746V55.59266h-15.2002v15h-.20019V84.76539l-.0738.01175-1.86172.296.18545,1.87595.35987,3.64014.21267,2.15136,2.12836-.37912q2.91674-.51951,7.0336-1.23907c2.70178-.47223,5.03064-.86029,6.922-1.15341l1.80612-.27991-.11652-1.824-.12008-1.88037-.044-.63226h10.33652c-.05493.35288-.0957.56931-.12381.70035l-.0123.05725-.00891.05789c-.008.05158-.01651.094-.02469.12821a3.78384,3.78384,0,0,1-.71838.0563h-8.66361l.50607,2.41089.68018,3.24023.33359,1.58911h7.66379a11.1622,11.1622,0,0,0,3.83181-.544,5.20969,5.20969,0,0,0,2.73993-2.22211,9.51705,9.51705,0,0,0,1.12305-3.43912l.01007-.06323.006-.06378c.1287-1.365.31293-2.86432.54752-4.45627l.00439-.02994.00351-.03009.27979-2.40039.12488-1.07138h2.329V71.99257h-.064L198.466,70.367l.91061-1.8212-1.83722-.87784a12.71419,12.71419,0,0,1-3.93668-2.87558h4.0344V57.43251h-9.36432q.14364-.59093.27914-1.21759l.45365-2.09879-2.12567-.30365-3.35987-.48-1.80832-.25833Zm-13.91494,10.1181h.76025v1.52h-.76025v-1.52Zm7.92041,1.6001h.71109q-.08753.08926-.17633.17691-.25626.2531-.53476.50369v-.6806Zm9.1358,1.16016q.197-.31306.38293-.63059.17007.31875.34961.63059Zm-12.09577,7.27978v-.03195l.01917.03195Zm0,7.43994h2.675l-.29858,1.56485-.901.20539c-.28244.06439-.776.15695-1.47544.27685V80.67225Z"/><path d="M204.8768,93.03212V73.47352c-.16552,1.30274-.31591,2.36231-.45312,3.20069l-.165,1.00879-4.99463-.93213.19092-.98828a124.36882,124.36882,0,0,0,1.54443-13.79981l.07031-1.00537,3.80713.29639V54.51259h5.76026V60.9247c1.1665.855,2.35351,1.75244,3.541,2.67724q.6753-2.87622,1.15039-5.96142l.14746-.95948,5.54981.68555-.16113,1.02149c-.23194,1.46923-.45362,2.78369-.66162,3.92431h2.1538V54.67225h5.88038v7.64014H236.597v5.87988h-8.35986v5.32032h7.71972v5.71972h-7.71972v6.52h9.11962v5.72022H211.63706V85.75233h10.71972v-6.52h-8.63964V73.51259h.31982l-2.66357-.90772.36914-.96826q.41894-1.09863.80127-2.24365s-1.53467-1.24365-1.90674-1.54053V93.03212Zm17.48-19.51953V68.19227h-3.51611c-.53174,1.91211-1.10107,3.69873-1.6958,5.32032Z"/><path class="cls-3" d="M209.63706,55.51259v5.91992q2.19947,1.60034,4.43994,3.35986l-1.72022,3.16016q-1.28027-1.04-2.71972-2.16016V92.03212H205.8768V55.51259h3.76026m17.6001.15966v7.64014H235.597v3.87988h-8.35986v7.32032h7.71972v3.71972h-7.71972v8.52h9.11962v3.72022H212.63706V86.75233h10.71972v-8.52h-8.63964V74.51259h8.63964V67.19227H218.077q-.88036,3.28053-1.87988,6l-3.52-1.1997a69.509,69.509,0,0,0,3.63965-14.2002l3.56.43994q-.47973,3.04029-.87988,5.08008h4.35986V55.67225h3.88038m-25.24024,6.36036,3.08008.23974q-.28051,3.20068-.78027,7.62012-.50025,4.42017-.85987,6.62012l-3-.56006a124.74288,124.74288,0,0,0,1.56006-13.91992m9.64014-8.52H203.8768v6.66028l-1.72467-.13425-2.00979-.15643-.14054,2.011A123.54822,123.54822,0,0,1,198.47318,75.573l-.3819,1.97617,1.97855.36935,3,.56006.807.15064V94.03212h7.76026V92.47255h26.71972V84.75233h-9.11962v-4.52h7.71972V72.51259h-7.71972V69.19227H237.597V61.31239h-8.35986V53.67225h-7.88038V56.4l-1.23468-.15259-3.56-.43994-1.92691-.23813-.29517,1.919q-.34369,2.23466-.79535,4.36276-.95856-.73137-1.90756-1.43225V53.51259Zm7.95981,15.67968h1.75991v3.32032h-2.79837c.35807-1.05243.7052-2.16236,1.03846-3.32032Zm-7.95981,15.56006V73.75105l.39483.13458.68525.23355v6.11313h8.63964v4.52h-9.71972Z"/><path d="M238.888,89.80263l.82178-.77686a26.52554,26.52554,0,0,0,3.29444-3.63623,12.67217,12.67217,0,0,0,1.72509-3.33643,17.34,17.34,0,0,0,.71045-3.2207h-5.24267v-5.52h5.60693c.0332-.77881.05518-1.54053.06543-2.27978h-4.07275V56.27235H260.037V71.03261h-8.66748l-.01318.46777c.00048.45459-.0127,1.06152-.03907,1.812h9.438l-.03857,1.03711q-.08057,2.15917-.22022,6.29639c-.09521,2.80322-.168,4.52344-.22265,5.26025-.12012,2.208-.77295,3.82764-1.9375,4.79541-1.144.94922-2.90332,1.41065-5.3794,1.41065h-4.09961l-.80127-4.00635-.06689.10107a38.05851,38.05851,0,0,1-3.86328,4.71l-.64258.68457Zm12.9087-3.09034a7.26991,7.26991,0,0,0,2.15087-.23046.98259.98259,0,0,0,.63965-.48633,3.95227,3.95227,0,0,0,.29-1.63282l.169-5.53027H251.0355a25.0742,25.0742,0,0,1-.90235,4.85352,17.33841,17.33841,0,0,1-1.25293,3.02636Zm2.64013-21.15966V61.63222h-7.12011v3.92041Zm8.62842,27-1.2207-5.8003h5.95215c1.21386,0,1.56054-.23828,1.61718-.28613.02832-.02344.26368-.249.26368-1.23389V54.95253h5.63867V86.67225a5.77213,5.77213,0,0,1-1.59473,4.50733c-1.04.92432-2.67773,1.373-5.00488,1.373Zm-.94824-9.2002v-24.96h5.59961v24.96Z"/><path class="cls-3" d="M274.31626,55.95253V86.67225a4.824,4.824,0,0,1-1.25977,3.76026q-1.25976,1.11914-4.33984,1.12012H263.8768l-.7998-3.8003h4.71973a3.62027,3.62027,0,0,0,2.25976-.52,2.537,2.537,0,0,0,.6211-2V55.95253h3.63867M259.037,57.27235V70.03261h-8.64014l-.04,1.43994q0,1.00048-.08007,2.83984h9.44043q-.08058,2.15991-.22022,6.29981-.14062,4.14038-.22021,5.22021-.15967,2.92017-1.57959,4.1001-1.42091,1.1792-4.74024,1.17969H249.6771l-.68018-3.39991h2.79981a8.34364,8.34364,0,0,0,2.46044-.27978,1.988,1.988,0,0,0,1.21973-.98,4.96213,4.96213,0,0,0,.3999-2.06006l.2002-6.56006h-5.96a25.57263,25.57263,0,0,1-.93994,5.56006,16.22646,16.22646,0,0,1-2.02,4.25977,36.90186,36.90186,0,0,1-3.76026,4.58007l-3-2.48a27.34651,27.34651,0,0,0,3.41993-3.77978,13.60551,13.60551,0,0,0,1.86035-3.6001,20.0335,20.0335,0,0,0,.87988-4.54h-5.35986v-3.52h5.56q.11938-2.23974.11963-4.27978h-4.08007V57.27235H259.037m-12.72021,9.28028h9.12011V60.63222h-9.12011v5.92041m20.3999-7.16016v22.96H263.117v-22.96h3.59961m9.59961-5.43994h-7.63867v3.43994H261.117V72.31239h-8.77036q.00312-.14475.00525-.27978h8.685V55.27235H240.79673V72.03261h4.05169q-.00384.13942-.00821.27978h-5.64309v7.52h5.07028a14.36928,14.36928,0,0,1-.48575,1.90189,11.67316,11.67316,0,0,1-1.58966,3.072,25.53751,25.53751,0,0,1-3.16913,3.49267l-1.64355,1.55378,1.74322,1.441,3,2.48,1.4476,1.19668,1.28516-1.36966c1.023-1.09027,1.91458-2.11548,2.66669-3.06591l.194.96963.32165,1.60767h4.91928c2.71887,0,4.6872-.53666,6.01749-1.64063a6.37814,6.37814,0,0,0,2.063-3.69919l.08249.39185.7998,3.80029.33423,1.58811h6.46274c2.58328,0,4.43734-.53153,5.66815-1.62491a6.706,6.706,0,0,0,1.93146-5.25547V53.95253Zm-27.99951,8.67969h5.12011v1.92041h-5.12011V62.63222Zm3.61447,17.20019h2.0838l-.1373,4.49905a3.72632,3.72632,0,0,1-.16351,1.16987.667.667,0,0,1-.07636.02948,6.35619,6.35619,0,0,1-1.84112.18148h-1.33655a18.35971,18.35971,0,0,0,.62881-1.73269,24.474,24.474,0,0,0,.84223-4.14719Zm9.42669,4.52h7.31968v.87988a3.3786,3.3786,0,0,1-.02689.45774,4.77825,4.77825,0,0,1-.854.06228h-6.51c.02087-.32437.04455-.78988.07116-1.3999Z"/><path d="M294.9979,93.07313V77.1454L293.367,79.33l-2.64942-2.49951V93.07313H285.117V79.65468c-.80957,1.51465-1.668,2.95019-2.56836,4.29443l-1.30859,1.95166-1.67383-7.687.25586-.35986a32.662,32.662,0,0,0,2.92578-5.21875,48.49418,48.49418,0,0,0,2.04785-5.24268h-4.59863V61.83241H285.117V54.67225h5.60058v7.16016h4.28028v-4.96h20.51953V93.03212h-5.63965V90.35243h-9.20019v2.7207Zm14.87988-8.44091V80.99257h-9.20019v3.63965Zm0-9.15967V71.79237h-9.20019v3.68018Zm-19.16016-5.87061c1.29,1.07129,2.72461,2.3169,4.28028,3.71631V67.39247h-4.28028Zm19.16016-3.36963V62.59266h-9.20019v3.63965Z"/><path class="cls-3" d="M289.71762,55.67225v7.16016h4.75977v3.56006h-4.75977v3.68018q2.48,2.03979,5.63965,4.91992l-2.12011,2.83984-3.51954-3.31982V92.07313H286.117V75.31239a52.73669,52.73669,0,0,1-4.39942,8.08008l-1.08007-4.96a33.52151,33.52151,0,0,0,3.01953-5.37988,49.37417,49.37417,0,0,0,2.46-6.54v-.12012h-4.91992V62.83241H286.117V55.67225h3.60058m24.79981,2.2002V92.03212h-3.63965V89.35243H299.67759v2.7207H295.9979V57.87245h18.51953m-14.83984,9.35986h11.20019V61.59266H299.67759v5.63965m0,9.24024h11.20019V70.79237H299.67759v5.68018m0,9.15967h11.20019V79.99257H299.67759v5.63965m-7.96-31.96H284.117v7.16016h-4.91992v7.56006H283.398c-.46435,1.29816-.98559,2.578-1.55847,3.8255a31.70794,31.70794,0,0,1-2.83331,5.05746l-.51074.72.1878.86258,1.08008,4.96.99982,4.59121,2.61584-3.90338q.37391-.55792.738-1.13589V94.07313h7.60058V79.14845l.14722.13886,1.63245,1.53982.50061-.67053V94.07313h7.67969v-2.7207h7.20019v2.67969h7.63965V55.87245H293.9979v4.96h-2.28028V53.67225Zm9.96,9.92041h7.20019v1.63965h-7.20019V63.59266Zm-9.96,4.79981h2.28028v2.6994q-1.19934-1.052-2.28028-1.958v-.74139Zm9.96,4.3999h7.20019v1.68018h-7.20019V72.79237Zm0,9.2002h7.20019v1.63965h-7.20019V81.99257Z"/><path d="M319.32212,88.00624l1.09765-.39453c4.61426-1.65918,8.07324-3.42578,10.28125-5.25049a13.57721,13.57721,0,0,0,3.62207-4.32861H320.35727v-5.8003h14.91992v-4.3999H322.077V62.1122h7.55566c-1.60449-2.19-2.75879-3.70557-3.44043-4.51612l-.76269-.90722,5.05371-2.95948s2.085,2.64307,3.09863,3.92188q1.5249,1.9292,2.56934,3.29394l.68554.895-.46093.272h3.30176c.916-1.146,1.92089-2.46582,2.99316-3.93018,1.17773-1.61035,2.1084-2.9458,2.76465-3.96973l.51074-.79687,5.39062,3.0542-.6455.90381c-1.09961,1.54-2.30274,3.12793-3.59082,4.73877h7.377v5.72021H341.27134l-.02833,4.3999h15.07422v5.8003H342.3143a15.861,15.861,0,0,0,4.51758,5.03564,27.09583,27.09583,0,0,0,9.45215,4.19483l1.18652.30273-2.78125,5.7417-.81054-.23438a31.68982,31.68982,0,0,1-9.82813-4.65136,22.33165,22.33165,0,0,1-5.61426-5.80762c-2.90039,4.32812-8.04785,7.874-15.333,10.55664l-.81153.29883Z"/><path class="cls-3" d="M346.27719,54.75233l3.60059,2.04q-2.2002,3.08057-4.87988,6.31983h8.47949v3.72021h-13.2002l-.04,6.3999h15.08007v3.8003H340.71762a16.32506,16.32506,0,0,0,5.51954,6.83984,27.95594,27.95594,0,0,0,9.7998,4.35986l-1.87988,3.87989a30.54513,30.54513,0,0,1-9.51953-4.5,20.84866,20.84866,0,0,1-6.2002-6.93995Q334.598,87.8727,322.75766,92.23231l-2-3.67968q7.11915-2.55982,10.58008-5.42041a13.13138,13.13138,0,0,0,4.46-6.09961H321.35727v-3.8003h14.91992v-6.3999H323.077V63.1122h8.52051q-3.36036-4.63917-4.63965-6.15967l3.2793-1.91992q1.04,1.31982,2.56054,3.23974,1.519,1.92042,2.55957,3.28028l-2.63965,1.55957h7.43946q1.52051-1.8794,3.32031-4.33985,1.8003-2.4602,2.7998-4.02m-.66143-2.67346-1.0221,1.59378c-.64557,1.00662-1.56415,2.325-2.73028,3.91861-.948,1.2955-1.84266,2.476-2.66809,3.52094h-1.65674l-.59284-.77485c-.69482-.90817-1.56268-2.02038-2.5794-3.30578q-1.51987-1.91886-2.55829-3.23685l-1.07813-1.36816-1.50323.88009-3.2793,1.91993-2.04663,1.19824,1.52649,1.815c.49023.58289,1.23462,1.54428,2.22418,2.87235H321.077v7.72021h13.20019v2.3999H319.35727v7.8003h13.182a14.64377,14.64377,0,0,1-2.476,2.55819c-2.118,1.75052-5.47663,3.45966-9.98236,5.07981l-2.19385.78878,1.11334,2.04831,2,3.67969.82568,1.5192,1.62262-.59748c6.83326-2.51617,11.854-5.79708,14.97541-9.77777a23.688,23.688,0,0,0,5.03961,4.90021,32.6702,32.6702,0,0,0,10.1366,4.80161l1.62078.46969.73578-1.51858,1.87989-3.87989,1.06823-2.20477-2.374-.60528a26.12665,26.12665,0,0,1-9.1048-4.02994,15.58511,15.58511,0,0,1-3.27911-3.23178h13.17v-7.8003h-15.0675l.015-2.3999h13.21265V61.1122h-6.3197q1.23725-1.6031,2.34759-3.15741l1.291-1.80756-1.93262-1.095-3.60058-2.04-1.64734-.93335Z"/><path d="M360.51743,90.55263V57.63222h10.87988c3.74317,0,6.69727.75586,8.78223,2.24658a7.75672,7.75672,0,0,1,3.29785,6.67383,7.58589,7.58589,0,0,1-1.64453,4.93164,7.74052,7.74052,0,0,1-2.00488,1.72656,8.14626,8.14626,0,0,1,3.05175,1.97021,7.65531,7.65531,0,0,1,2.07813,5.49121,8.58085,8.58085,0,0,1-3.63965,7.394c-2.30859,1.6499-5.60645,2.48633-9.80078,2.48633Zm10.44043-6.2002a10.98942,10.98942,0,0,0,5.6543-1.1709,3.17591,3.17591,0,0,0,1.665-2.90918,2.77276,2.77276,0,0,0-1.6289-2.56787,11.87663,11.87663,0,0,0-5.65039-1.07226H367.037v7.72021Zm-.08008-13.91992a8.21482,8.21482,0,0,0,4.52539-1.03223,2.78116,2.78116,0,0,0,1.35449-2.48779A2.34731,2.34731,0,0,0,375.45,64.7538a9.29685,9.29685,0,0,0-4.61231-.92139H367.037v6.6001Z"/><path class="cls-3" d="M371.39731,58.63222q5.31885,0,8.2002,2.06005a6.7771,6.7771,0,0,1,2.87988,5.86036,6.58081,6.58081,0,0,1-1.41992,4.2998,7.64423,7.64423,0,0,1-4.02051,2.46v.24024a8.35184,8.35184,0,0,1,5.12012,2.31982,6.6586,6.6586,0,0,1,1.80078,4.7998,7.598,7.598,0,0,1-3.2207,6.58008q-3.21974,2.30053-9.21973,2.3003h-10V58.63222h9.87988M366.037,71.43251h4.84082a9.11479,9.11479,0,0,0,5.08008-1.2002,3.78192,3.78192,0,0,0,1.7998-3.31982,3.33127,3.33127,0,0,0-1.7998-3.02,10.18541,10.18541,0,0,0-5.12012-1.06006H366.037v8.6001m0,13.91992h4.9209a11.86552,11.86552,0,0,0,6.17969-1.31982,4.18031,4.18031,0,0,0,2.13964-3.76026,3.76207,3.76207,0,0,0-2.13964-3.43994,12.74668,12.74668,0,0,0-6.13965-1.20019H366.037v9.72021m5.36035-28.72021H359.51743V91.55263h12c4.40692,0,7.90008-.89933,10.38245-2.673a9.531,9.531,0,0,0,4.058-8.20737,8.52526,8.52526,0,0,0-4.20972-7.64883,8.34778,8.34778,0,0,0,2.72925-6.47079,8.81711,8.81711,0,0,0-3.71594-7.48676c-2.25824-1.615-5.40857-2.43365-9.36414-2.43365ZM368.037,64.83241h2.80078a8.50293,8.50293,0,0,1,4.106.78388,1.34063,1.34063,0,0,1,.8139,1.2962,1.79213,1.79213,0,0,1-.90954,1.65591,7.29063,7.29063,0,0,1-3.97034.86411H368.037v-4.6001Zm0,12.79981h2.96094a10.96116,10.96116,0,0,1,5.16168.94479,1.77141,1.77141,0,0,1,1.11761,1.69534,2.2029,2.2029,0,0,1-1.19043,2.05854,10.07585,10.07585,0,0,1-5.1289,1.02154H368.037V77.63222Z"/><path d="M397.99692,91.1122a11.35169,11.35169,0,0,1-5.95605-1.54395A10.13471,10.13471,0,0,1,388.09262,85.12a16.75836,16.75836,0,0,1,.002-13.11817,10.28223,10.28223,0,0,1,3.94043-4.44238,12.04964,12.04964,0,0,1,11.88379,0,10.41617,10.41617,0,0,1,3.958,4.43653,16.53189,16.53189,0,0,1,.002,13.12988,10.268,10.268,0,0,1-3.96485,4.44238A11.27939,11.27939,0,0,1,397.99692,91.1122Zm0-19a4.0658,4.0658,0,0,0-3.41211,1.61523,7.70914,7.70914,0,0,0-1.34765,4.8252,7.7915,7.7915,0,0,0,1.35058,4.84863,4.04825,4.04825,0,0,0,3.40918,1.63135,4.08917,4.08917,0,0,0,3.44922-1.63135,7.7915,7.7915,0,0,0,1.35059-4.84863,7.70552,7.70552,0,0,0-1.34864-4.82569A4.10507,4.10507,0,0,0,397.99692,72.1122Z"/><path class="cls-3" d="M397.99692,66.99257a10.14218,10.14218,0,0,1,5.40039,1.41992,9.39629,9.39629,0,0,1,3.58008,4.02,15.54346,15.54346,0,0,1,0,12.25976,9.24213,9.24213,0,0,1-3.58008,4.02,11.19177,11.19177,0,0,1-10.83984,0,9.10668,9.10668,0,0,1-3.56055-4.02,15.76865,15.76865,0,0,1,0-12.25976,9.25629,9.25629,0,0,1,3.56055-4.02,10.21162,10.21162,0,0,1,5.43945-1.41992m0,19.04a5.07249,5.07249,0,0,0,4.24024-2.02,8.70993,8.70993,0,0,0,1.55957-5.46,8.62618,8.62618,0,0,0-1.55957-5.44043,5.45249,5.45249,0,0,0-8.44043,0,8.62611,8.62611,0,0,0-1.55957,5.44043,8.70987,8.70987,0,0,0,1.55957,5.46,5.03183,5.03183,0,0,0,4.20019,2.02m0-21.04a12.22222,12.22222,0,0,0-6.48358,1.71414A11.26416,11.26416,0,0,0,387.1915,71.572a17.747,17.747,0,0,0-.002,13.97651,11.1111,11.1111,0,0,0,4.335,4.87634,13.18248,13.18248,0,0,0,12.90588,0,11.25012,11.25012,0,0,0,4.34918-4.86521,17.52244,17.52244,0,0,0-.00213-13.999,11.40843,11.40843,0,0,0-4.33551-4.8537,12.154,12.154,0,0,0-6.445-1.71438Zm0,19.04a3.02909,3.02909,0,0,1-2.61731-1.2425,6.84291,6.84291,0,0,1-1.14245-4.23748A6.76352,6.76352,0,0,1,395.374,74.3419a3.04628,3.04628,0,0,1,2.62292-1.2297,3.08689,3.08689,0,0,1,2.66339,1.23028,6.76327,6.76327,0,0,1,1.13642,4.21015,6.843,6.843,0,0,1-1.14228,4.23721,3.06891,3.06891,0,0,1-2.65753,1.24277Z"/><path d="M420.83579,91.35243a7.481,7.481,0,0,1-5.68653-2.13281,8.30042,8.30042,0,0,1-1.99316-5.90723V72.67225h-3.44043V66.55263h3.44043V59.83241h6.35938v6.72022h6.12011v6.11962h-6.12011V82.83241a2.43562,2.43562,0,0,0,.57519,1.78076,2.26479,2.26479,0,0,0,1.70508.5791,6.08435,6.08435,0,0,0,2.02539-.38232l1.335-.47412v6.21191l-.67676.231A11.251,11.251,0,0,1,420.83579,91.35243Z"/><path class="cls-3" d="M418.51548,60.83241v6.72022h6.12011v4.11962h-6.12011V82.83241a3.39918,3.39918,0,0,0,.86035,2.48,3.22756,3.22756,0,0,0,2.41992.87988,7.04943,7.04943,0,0,0,2.36035-.43994v4.08008a10.21241,10.21241,0,0,1-3.32031.52,6.49975,6.49975,0,0,1-4.96-1.81982,7.31347,7.31347,0,0,1-1.71973-5.22022V71.67225h-3.44043V67.55263h3.44043V60.83241h4.35938m2-2H412.1561v6.72022h-3.44043v8.11962h3.44043v9.64014a9.25487,9.25487,0,0,0,2.266,6.59381,8.436,8.436,0,0,0,6.4137,2.44623,12.25169,12.25169,0,0,0,3.96667-.62735l1.35364-.46228V82.91905l-2.66974.94873a5.09854,5.09854,0,0,1-1.69061.32449,1.37745,1.37745,0,0,1-.98914-.27734,1.55446,1.55446,0,0,1-.29113-1.08252V73.67225h6.12011V65.55263h-6.12011V58.83241Z"/><polygon points="168.724 45.559 168.724 18.16 159.918 18.16 159.918 13.24 182.368 13.24 182.368 18.16 173.598 18.16 173.598 45.559 168.724 45.559"/><path class="cls-3" d="M181.36753,14.23964v2.91992h-8.769v27.3999h-2.874V17.15956h-8.80615V14.23964h20.44922m2-2H158.91831v6.91992h8.80615v27.3999h6.874V19.15956h8.769V12.23964Z"/><path d="M180.5521,45.55946V22.43934h4.72607v2.38282a10.21018,10.21018,0,0,1,1.71777-1.47022,8.52168,8.52168,0,0,1,4.87256-1.47265h1.29492v5.20019h-1.36865a7.44411,7.44411,0,0,0-3.4956.78516,5.77219,5.77219,0,0,0-2.25391,2.00879,4.62751,4.62751,0,0,0-.76709,2.52588V45.55946Z"/><path class="cls-3" d="M192.16342,22.87929v3.20019h-.36865a8.39258,8.39258,0,0,0-3.96093.8999,6.72748,6.72748,0,0,0-2.63428,2.36036,5.64878,5.64878,0,0,0-.92139,3.05957V44.55946H181.5521V23.43934h2.72607v4.24024h.18457a9.644,9.644,0,0,1,3.09473-3.5,7.50412,7.50412,0,0,1,4.311-1.30029h.29492m2-2H191.8685a9.50249,9.50249,0,0,0-5.43383,1.6452q-.0788.05346-.1565.10815v-1.1933H179.5521V46.55946h6.72607V32.39931a3.65753,3.65753,0,0,1,.61289-1.99241,4.72462,4.72462,0,0,1,1.873-1.657,6.4627,6.4627,0,0,1,3.03067-.67038h2.36865V20.87929Z"/><path d="M200.08481,46.11952a7.2855,7.2855,0,0,1-5.22217-1.85644,6.54021,6.54021,0,0,1-1.96777-4.94336c0-3.5586,1.86719-7.8003,10.76367-7.8003h1.874V30.5995a4.16066,4.16066,0,0,0-.98389-2.97754,3.47912,3.47912,0,0,0-2.69531-1.02246,6.56129,6.56129,0,0,0-4.30078,2.01953l-.791.71973-2.83691-3.56934.6206-.63086a10.18567,10.18567,0,0,1,7.45557-3.25927,7.75274,7.75274,0,0,1,8.29492,8.32031V45.55946h-4.76318V44.0287a8.25656,8.25656,0,0,1-5.44776,2.09082Zm4.08985-9.87988a11.85258,11.85258,0,0,0-5.18995.84472,2.115,2.115,0,0,0-1.29,2.03516,1.99372,1.99372,0,0,0,.68018,1.63867,3.299,3.299,0,0,0,2.189.64112,5.36146,5.36146,0,0,0,2.31347-.562,4.78191,4.78191,0,0,0,1.91065-1.66455,4.53458,4.53458,0,0,0,.74463-2.65332v-.27978Z"/><path class="cls-3" d="M202.00083,22.87929a6.76213,6.76213,0,0,1,7.29492,7.32031V44.55946h-2.76318V41.35927h-.18409a6.71756,6.71756,0,0,1-2.59765,2.74023,7.04487,7.04487,0,0,1-3.666,1.02,6.2984,6.2984,0,0,1-4.53222-1.58008,5.55524,5.55524,0,0,1-1.65772-4.21972q0-6.79981,9.76367-6.8003h2.874V30.5995a5.1496,5.1496,0,0,0-1.25293-3.66016,4.4633,4.4633,0,0,0-3.42627-1.33984,7.47738,7.47738,0,0,0-4.97412,2.27979l-1.6211-2.03955a9.181,9.181,0,0,1,6.74268-2.96045m-1.437,19.52a6.32649,6.32649,0,0,0,2.74462-.65967,5.80667,5.80667,0,0,0,2.30323-2,5.54917,5.54917,0,0,0,.9209-3.22022V35.23964h-2.35791a12.67229,12.67229,0,0,0-5.65577.96,3.11371,3.11371,0,0,0-1.82422,2.91992,2.9869,2.9869,0,0,0,1.03174,2.3999,4.231,4.231,0,0,0,2.83741.87989m1.437-21.52a11.15186,11.15186,0,0,0-8.16883,3.55828l-1.24038,1.2616,1.10086,1.385,1.62109,2.03955,1.33057,1.674,1.58139-1.43942a5.62817,5.62817,0,0,1,3.62784-1.75882,2.43841,2.43841,0,0,1,1.96533.70572,3.17036,3.17036,0,0,1,.71338,2.2142h-.87354c-10.23538,0-11.76367,5.51367-11.76367,8.8003a7.50378,7.50378,0,0,0,2.27814,5.66775,8.24889,8.24889,0,0,0,5.9118,2.132,9.026,9.026,0,0,0,4.44776-1.16235v.60229h6.76318V30.1996a8.746,8.746,0,0,0-9.29492-9.32031Zm-1.437,19.52a2.37315,2.37315,0,0,1-1.53885-.401,1.00408,1.00408,0,0,1-.3303-.87878,1.14113,1.14113,0,0,1,.756-1.15021,10.59606,10.59606,0,0,1,4.724-.72967h.30712a3.21151,3.21151,0,0,1-.51879,1.36783,3.80814,3.80814,0,0,1-1.5163,1.32736,4.31782,4.31782,0,0,1-1.88287.46448Z"/><path d="M226.79233,45.55946V31.71962a5.83483,5.83483,0,0,0-1.1543-3.80469,3.33945,3.33945,0,0,0-2.70947-1.31543,4.27353,4.27353,0,0,0-3.39453,1.481,5.72161,5.72161,0,0,0-1.35352,3.959v13.52h-4.72607V22.43934h4.72607v1.56983a8.309,8.309,0,0,1,1.28516-.94678,7.93384,7.93384,0,0,1,4.126-1.1831,7.26083,7.26083,0,0,1,5.85156,2.5581,10.31982,10.31982,0,0,1,2.07568,6.80225V45.55946Z"/><path class="cls-3" d="M223.59165,22.87929a6.27715,6.27715,0,0,1,5.085,2.20019,9.3239,9.3239,0,0,1,1.84228,6.16016V44.55946h-2.72656V31.71962a6.76883,6.76883,0,0,0-1.38183-4.43994,4.32175,4.32175,0,0,0-3.48194-1.68018,5.26841,5.26841,0,0,0-4.145,1.81983,6.73648,6.73648,0,0,0-1.603,4.62011v12.52h-2.72607V23.43934h2.72607v3.24024h.18458a6.81279,6.81279,0,0,1,2.61572-2.76025,6.91934,6.91934,0,0,1,3.61084-1.04m0-2a8.86953,8.86953,0,0,0-4.41114,1.19174v-.63169h-6.72607V46.55946h6.72607v-14.52a4.76862,4.76862,0,0,1,1.10437-3.29876,3.28426,3.28426,0,0,1,2.64368-1.14118,2.33645,2.33645,0,0,1,1.93738.95071,4.81642,4.81642,0,0,1,.92639,3.16941V46.55946h6.72656V31.23964a11.27937,11.27937,0,0,0-2.30877-7.444,8.21742,8.21742,0,0,0-6.61847-2.91632Z"/><path d="M241.97739,46.11952a9.71587,9.71587,0,0,1-5.28857-1.41553,9.36929,9.36929,0,0,1-3.41944-3.82129l-.398-.8042,3.98535-2.541.51075.94775a5.65423,5.65423,0,0,0,1.958,2.16992,4.93332,4.93332,0,0,0,2.7251.74415,4.25085,4.25085,0,0,0,2.55469-.66309,1.89274,1.89274,0,0,0,.00342-3.0249,8.88214,8.88214,0,0,0-3.3374-1.29785,13.52431,13.52431,0,0,1-5.49122-2.53565,5.74138,5.74138,0,0,1-2.02441-4.5581,7.05028,7.05028,0,0,1,2.22168-5.4375,8.35712,8.35712,0,0,1,5.85254-2.00293,9.07607,9.07607,0,0,1,4.81494,1.28711,9.97143,9.97143,0,0,1,3.4209,3.61572l.43408.75586-3.76416,2.90869-.57422-.98291a6.24976,6.24976,0,0,0-1.97851-2.16211,4.31888,4.31888,0,0,0-2.39014-.70215,3.794,3.794,0,0,0-2.43066.69873,1.98229,1.98229,0,0,0-.76954,1.66113,1.70447,1.70447,0,0,0,.832,1.43848,9.96765,9.96765,0,0,0,3.356,1.39356c4.89063,1.15039,7.38135,3.48291,7.38135,6.92822a6.92547,6.92547,0,0,1-2.27051,5.42724A8.6068,8.6068,0,0,1,241.97739,46.11952Z"/><path class="cls-3" d="M241.82993,22.87929a8.05282,8.05282,0,0,1,4.29248,1.14013,8.94484,8.94484,0,0,1,3.07617,3.26026l-2.17383,1.67968a7.2015,7.2015,0,0,0-2.30273-2.5,5.33778,5.33778,0,0,0-2.9292-.85986,4.73286,4.73286,0,0,0-3.05811.91992,2.97648,2.97648,0,0,0-1.14209,2.43994A2.72,2.72,0,0,0,238.827,31.1996a10.84806,10.84806,0,0,0,3.70264,1.56006q6.63207,1.56006,6.63232,5.96a5.94271,5.94271,0,0,1-1.93457,4.67969,7.61414,7.61414,0,0,1-5.25,1.72021,8.6974,8.6974,0,0,1-4.75342-1.26025,8.342,8.342,0,0,1-3.0581-3.41993l2.32129-1.48a6.68473,6.68473,0,0,0,2.30273,2.54,5.95264,5.95264,0,0,0,3.26074.89991,5.17821,5.17821,0,0,0,3.15039-.85987,2.893,2.893,0,0,0,.01856-4.62011,10.02487,10.02487,0,0,0-3.72119-1.48,12.6625,12.6625,0,0,1-5.06641-2.31982,4.76106,4.76106,0,0,1-1.67627-3.7998,6.06269,6.06269,0,0,1,1.89746-4.7002,7.36469,7.36469,0,0,1,5.17676-1.74023m0-2a9.32029,9.32029,0,0,0-6.52878,2.26645,8.00957,8.00957,0,0,0-2.54544,6.174,6.78865,6.78865,0,0,0,2.3735,5.31729,14.422,14.422,0,0,0,5.86728,2.73834,8.1414,8.1414,0,0,1,3.00367,1.12921.76255.76255,0,0,1,.36151.695.77436.77436,0,0,1-.35105.7327,3.36575,3.36575,0,0,1-1.96.467,3.96124,3.96124,0,0,1-2.18884-.58841,4.68145,4.68145,0,0,1-1.614-1.80027l-1.021-1.89477L235.412,37.273l-2.32129,1.48-1.51321.96479.7958,1.60849a10.35116,10.35116,0,0,0,3.78067,4.22271,10.6982,10.6982,0,0,0,5.82346,1.57059,9.57273,9.57273,0,0,0,6.57919-2.2258,7.886,7.886,0,0,0,2.60538-6.1741c0-2.72986-1.41818-6.31757-8.17438-7.90683a8.69395,8.69395,0,0,1-2.96469-1.21628c-.43027-.32053-.43027-.51874-.43027-.63715a.98493.98493,0,0,1,.39695-.88259,2.85518,2.85518,0,0,1,1.80325-.47727,3.34752,3.34752,0,0,1,1.85284.54553,5.26844,5.26844,0,0,1,1.65238,1.82352l1.1485,1.96509,1.80108-1.39166,2.17383-1.67969,1.37927-1.06577-.86728-1.512a10.95826,10.95826,0,0,0-3.7655-3.97009,10.05855,10.05855,0,0,0-5.338-1.43518Z"/><path d="M265.40415,45.55946V13.23964h9.14355c3.36035,0,6.00489.7456,7.86035,2.21631a7.8085,7.8085,0,0,1,2.90332,6.46338,7.70349,7.70349,0,0,1-1.53027,4.78613,7.29123,7.29123,0,0,1-1.8291,1.69824,7.77079,7.77079,0,0,1,2.81055,1.98975,7.91523,7.91523,0,0,1,1.94921,5.44629,8.69985,8.69985,0,0,1-3.27734,7.248c-2.09863,1.64014-5.07715,2.47168-8.85058,2.47168Zm8.77441-4.91992a10.13429,10.13429,0,0,0,5.7666-1.36035,4.11985,4.11985,0,0,0,1.78223-3.63965,3.561,3.561,0,0,0-1.70605-3.2251,10.32981,10.32981,0,0,0-5.6211-1.25488H270.242v9.48Zm.22168-14.43994a7.38865,7.38865,0,0,0,4.499-1.17725,3.585,3.585,0,0,0,1.42774-3.063,3.0191,3.0191,0,0,0-1.416-2.728,8.61243,8.61243,0,0,0-4.73242-1.07178H270.242v8.04Z"/><path class="cls-3" d="M274.5477,14.23964q4.71534,0,7.23926,2a6.82726,6.82726,0,0,1,2.52441,5.67969,6.50171,6.50171,0,0,1-4.97461,6.56005v.24024a7.4919,7.4919,0,0,1,4.67969,2.33984,6.91507,6.91507,0,0,1,1.69531,4.78028,7.71644,7.71644,0,0,1-2.89257,6.46q-2.89306,2.26024-8.23535,2.25976h-8.17969V14.23964h8.14355m-5.30566,12.96h5.1582a8.29969,8.29969,0,0,0,5.10254-1.37988,4.56421,4.56421,0,0,0,1.82422-3.86036,4.02445,4.02445,0,0,0-1.86133-3.56005,9.50284,9.50284,0,0,0-5.28711-1.23975H269.242v10.04m0,14.43994h4.93652a11.01869,11.01869,0,0,0,6.33789-1.54,5.09839,5.09839,0,0,0,2.21094-4.46,4.5759,4.5759,0,0,0-2.15625-4.06006,11.2112,11.2112,0,0,0-6.1709-1.41992H269.242v11.48m5.30566-29.3999H264.40415V46.55946h10.17969c4.00225,0,7.18725-.90292,9.46667-2.68371a9.65388,9.65388,0,0,0,3.66125-8.036,8.88673,8.88673,0,0,0-2.20257-6.11136,8.5973,8.5973,0,0,0-1.74664-1.4968,8.3915,8.3915,0,0,0,.813-.91928,8.6814,8.6814,0,0,0,1.73584-5.393,8.76369,8.76369,0,0,0-3.28222-7.24714c-2.03668-1.61413-4.89026-2.43255-8.48145-2.43255ZM271.242,19.15956h2.93652a7.688,7.688,0,0,1,4.17829.90424,2.04438,2.04438,0,0,1,.97015,1.89556,2.583,2.583,0,0,1-1.03137,2.26575,6.45612,6.45612,0,0,1-3.89539.97449H271.242v-6.04Zm0,13h3.1582a9.40384,9.40384,0,0,1,5.07068,1.09012,2.575,2.575,0,0,1,1.25647,2.38986,3.10782,3.10782,0,0,1-1.354,2.81879,9.20742,9.20742,0,0,1-5.19483,1.18121H271.242v-7.48Z"/><path d="M298.38559,46.11952a9.128,9.128,0,0,1-5.2207-1.53174,9.71017,9.71017,0,0,1-3.45313-4.3125,15.8022,15.8022,0,0,1-1.16894-6.27588,15.80561,15.80561,0,0,1,1.16894-6.27588,9.71955,9.71955,0,0,1,3.45313-4.312,9.662,9.662,0,0,1,10.44238,0,9.723,9.723,0,0,1,3.45215,4.312,15.8056,15.8056,0,0,1,1.16895,6.27588,15.80219,15.80219,0,0,1-1.16895,6.27588,9.7175,9.7175,0,0,1-3.45215,4.3125A9.13411,9.13411,0,0,1,298.38559,46.11952Zm0-19.43994a4.19589,4.19589,0,0,0-3.57715,1.85107,9.11451,9.11451,0,0,0-1.46484,5.46875,9.10985,9.10985,0,0,0,1.46484,5.46826,4.38184,4.38184,0,0,0,7.15528.00049,9.11247,9.11247,0,0,0,1.46484-5.46875,9.11451,9.11451,0,0,0-1.46484-5.46875A4.19875,4.19875,0,0,0,298.38559,26.67958Z"/><path class="cls-3" d="M298.38559,22.87929a8.11673,8.11673,0,0,1,4.66114,1.36035,8.70149,8.70149,0,0,1,3.09472,3.87988,14.75008,14.75008,0,0,1,1.08692,5.87988,14.74675,14.74675,0,0,1-1.08692,5.87989,8.70029,8.70029,0,0,1-3.09472,3.88037,8.66664,8.66664,0,0,1-9.32129,0,8.69548,8.69548,0,0,1-3.09571-3.88037,14.74676,14.74676,0,0,1-1.08691-5.87989,14.75008,14.75008,0,0,1,1.08691-5.87988,8.69667,8.69667,0,0,1,3.09571-3.87988,8.11138,8.11138,0,0,1,4.66015-1.36035m0,19.44043a5.18221,5.18221,0,0,0,4.38477-2.26026,10.024,10.024,0,0,0,1.6582-6.06006,10.02605,10.02605,0,0,0-1.6582-6.06006,5.383,5.383,0,0,0-8.76856,0,10.02612,10.02612,0,0,0-1.6582,6.06006,10.02411,10.02411,0,0,0,1.6582,6.06006,5.1793,5.1793,0,0,0,4.38379,2.26026m0-21.44043a10.10966,10.10966,0,0,0-5.7818,1.70446,10.70153,10.70153,0,0,0-3.81054,4.74375,16.79255,16.79255,0,0,0-1.25043,6.6719,16.78883,16.78883,0,0,0,1.25049,6.67209,10.6992,10.6992,0,0,0,3.81158,4.74478,10.6629,10.6629,0,0,0,11.56293-.00036,10.704,10.704,0,0,0,3.81012-4.7446,16.78854,16.78854,0,0,0,1.25043-6.67191,16.79273,16.79273,0,0,0-1.25043-6.6719,10.7064,10.7064,0,0,0-3.80969-4.74384,10.11627,10.11627,0,0,0-5.78266-1.70437Zm0,19.44043a3.17669,3.17669,0,0,1-2.77069-1.44263,8.15928,8.15928,0,0,1-1.2713-4.87769,8.16134,8.16134,0,0,1,1.27075-4.877,3.38377,3.38377,0,0,1,5.54383.00049,8.16135,8.16135,0,0,1,1.27038,4.87652,8.15956,8.15956,0,0,1-1.27057,4.87677,3.18011,3.18011,0,0,1-2.7724,1.44355Z"/><path d="M318.17173,46.31972a5.93522,5.93522,0,0,1-4.78028-2.01563,8.13871,8.13871,0,0,1-1.63574-5.38476V27.23964h-3.05762v-4.8003h3.05762v-6.5996h4.76367v6.5996h5.63672v4.8003h-5.63672V38.67958a3.42592,3.42592,0,0,0,.61621,2.2207,1.90892,1.90892,0,0,0,1.58887.65918,5.10051,5.10051,0,0,0,1.64941-.37988l1.34082-.48633v4.83691l-.5957.26368A7.31592,7.31592,0,0,1,318.17173,46.31972Z"/><path class="cls-3" d="M315.51938,16.83974v6.5996h5.63672v2.8003h-5.63672V38.67958a4.35011,4.35011,0,0,0,.84766,2.85986,2.89547,2.89547,0,0,0,2.35742,1.02,6.1344,6.1344,0,0,0,1.99023-.43994v2.75977a6.31963,6.31963,0,0,1-2.543.44043,4.96089,4.96089,0,0,1-4.01563-1.66016,7.15342,7.15342,0,0,1-1.40039-4.74023V26.23964h-3.05762v-2.8003h3.05762v-6.5996h2.76367m2-2h-6.76367v6.5996h-3.05762v6.8003h3.05762V38.91933a9.09377,9.09377,0,0,0,1.87183,6.03,6.92061,6.92061,0,0,0,5.54419,2.3704,8.184,8.184,0,0,0,3.35235-.61155l1.19061-.52691V39.26674l-2.68188.97259a4.20493,4.20493,0,0,1-1.30835.32013c-.57172,0-.73218-.19336-.81836-.29724a2.6622,2.6622,0,0,1-.38672-1.58264V28.23964h5.63672v-6.8003h-5.63672v-6.5996Z"/></svg>